/* XPM */
static char *result[] = {
/* columns rows colors chars-per-pixel */
"50 50 164 2 ",
"   c #672B2A",
".  c #6D2828",
"X  c #703330",
"o  c #7F3432",
"O  c #7C3839",
"+  c #72696A",
"@  c #796A6A",
"#  c #76716E",
"$  c #737373",
"%  c #797675",
"&  c #7B7977",
"*  c #7D7D7C",
"=  c #8F3936",
"-  c #A82723",
";  c #BD2A25",
":  c #BF2F2A",
">  c #B52A25",
",  c #B7332F",
"<  c #B23633",
"1  c #C52B26",
"2  c #CA2E26",
"3  c #C42E28",
"4  c #CA3326",
"5  c #CB3D26",
"6  c #CF4C28",
"7  c #D5682F",
"8  c #94514F",
"9  c #945351",
"0  c #985451",
"q  c #B44C42",
"w  c #BA5E40",
"e  c #9F624E",
"r  c #937D5F",
"t  c #B36142",
"y  c #856868",
"u  c #847668",
"i  c #867A69",
"p  c #817B77",
"a  c #847D78",
"s  c #B57A67",
"d  c #C84742",
"f  c #C74841",
"g  c #CD534C",
"h  c #CF5C55",
"j  c #D05750",
"k  c #D15D58",
"l  c #C0605B",
"z  c #CE645B",
"x  c #D06660",
"c  c #D87465",
"v  c #D57974",
"b  c #E7962F",
"n  c #83817E",
"m  c #8A837F",
"M  c #9A877C",
"N  c #A58D7E",
"B  c #AD8C7A",
"V  c #B68F7A",
"C  c #C18D42",
"Z  c #C28B74",
"A  c #DA817A",
"S  c #848482",
"D  c #8D8782",
"F  c #888885",
"G  c #8D8C8A",
"H  c #958C87",
"J  c #928F8D",
"K  c #94938F",
"L  c #969493",
"P  c #9C9B96",
"I  c #9E9D9A",
"U  c #AC9484",
"Y  c #AF9C8C",
"T  c #B59483",
"R  c #B89887",
"E  c #A79E94",
"W  c #A59E9C",
"Q  c #A3A29D",
"!  c #BAA393",
"~  c #A6A6A0",
"^  c #ACACA4",
"/  c #ADA7A8",
"(  c #B1A7A0",
")  c #B4B3AB",
"_  c #BAB8AF",
"`  c #B2AEB0",
"'  c #BDBBB3",
"]  c #B6B1B4",
"[  c #C09980",
"{  c #C99E86",
"}  c #C5938F",
"|  c #CBA18A",
" . c #DAA787",
".. c #D4A58B",
"X. c #DCAB8E",
"o. c #CEA990",
"O. c #DDB195",
"+. c #E0A487",
"@. c #EDAC86",
"#. c #E1A78A",
"$. c #E5AB8B",
"%. c #E9AE8B",
"&. c #F0AF8A",
"*. c #E7B08F",
"=. c #EFB089",
"-. c #F3B48D",
";. c #E4AF92",
":. c #E1A299",
">. c #E6B092",
",. c #EDB595",
"<. c #EDB997",
"1. c #E4B499",
"2. c #EBB89A",
"3. c #F2B593",
"4. c #F4B995",
"5. c #F8BA96",
"6. c #F6BB9A",
"7. c #F8BB99",
"8. c #C1B4A6",
"9. c #D4BAAD",
"0. c #DABFAD",
"q. c #DABCB0",
"w. c #E5BEA4",
"e. c #E9BCA1",
"r. c #F2BFA4",
"t. c #C2C1B7",
"y. c #C5C3B9",
"u. c #C9C6BD",
"i. c #CBCBBF",
"p. c #D8CEBF",
"a. c #F4C4A5",
"s. c #F4C6AA",
"d. c #F2CBAC",
"f. c #EBC9BC",
"g. c #F4D1B4",
"h. c #CDCCC2",
"j. c #D3D1C5",
"k. c #D6D3CB",
"l. c #D9D7CA",
"z. c #DDDBCD",
"x. c #DFDED0",
"c. c #DFD9D9",
"v. c #EED9C3",
"b. c #F4DBC7",
"n. c #E0DDD0",
"m. c #E4DEDB",
"M. c #ECE1CF",
"N. c #F7E4CE",
"B. c #E5E3D4",
"V. c #E5E0DD",
"C. c #EAE6D9",
"Z. c #EDEBDC",
"A. c #F8E6D3",
"S. c #F6E8D6",
"D. c #F2ECDC",
"F. c #F8ECD8",
"G. c #F7F0DE",
"H. c #EDE7E5",
"J. c #EEE9E6",
"K. c #F2EEE4",
"L. c #F6F2E5",
"P. c #FAF7E6",
"I. c #FAF8E7",
"U. c #FAF9E8",
/* pixels */
"$ $ $ $ $ $ $ $ $ $ $ $ $ $ $ $ $ $ $ $ $ $ $ $ $ $ $ $ $ $ $ $ $ $ $ $ $ $ $ $ $ $ $ $ $ $ $ $ $ $ ",
"$ $ $ $ $ $ $ $ $ $ $ $ $ $ $ $ $ $ $ $ $ $ $ $ $ $ $ $ $ $ $ $ $ $ $ $ $ $ $ $ $ $ $ $ $ $ $ $ $ $ ",
"$ $ $ $ $ $ $ $ $ $ $ $ $ $ $ $ $ $ $ $ $ $ $ $ $ $ $ $ $ $ $ $ $ $ $ $ $ $ $ $ $ $ $ $ $ $ $ $ $ $ ",
"$ $ $ $ $ $ $ $ $ $ $ $ $ $ $ $ $ $ $ $ $ $ $ # $ $ $ $ $ $ $ $ $ $ $ $ $ $ $ $ $ $ $ $ $ $ $ $ $ $ ",
"$ $ $ $ $ $ $ $ $ $ $ $ $ $ $ $ $ $ $ $ # e t w q 8 $ $ $ $ $ $ $ $ $ $ $ $ $ $ $ $ $ $ $ $ $ $ $ $ ",
"$ $ $ $ $ $ $ $ $ $ $ $ $ $ $ $ $ $ $ $ r 6 4 2 2 1 y $ $ $ $ $ $ $ $ $ $ $ $ $ $ $ $ $ $ $ $ $ $ $ ",
"$ $ $ $ $ $ $ $ $ $ $ $ $ $ $ $ $ $ $ $ C 5 1 1 1 1 8 $ $ $ $ $ $ $ $ $ $ $ $ $ $ $ $ $ $ $ $ $ $ $ ",
"$ $ $ $ $ $ $ $ $ $ $ $ $ $ $ $ $ $ $ u b 4 1 1 1 1 , $ $ $ $ $ $ $ $ $ $ $ $ $ $ $ $ $ $ $ $ $ $ $ ",
"$ $ $ $ $ $ $ $ $ $ $ $ $ $ $ $ $ $ $ u 7 2 1 1 1 1 1 + $ $ $ $ $ $ $ $ $ $ $ $ $ $ $ $ $ $ $ $ $ $ ",
"$ $ $ $ $ $ $ $ $ $ $ $ $ $ $ $ $ $ $ @ , ; - 2 - ; 1 @ $ $ $ $ $ $ $ $ $ $ $ $ $ $ $ $ $ $ $ $ $ $ ",
"$ $ $ $ $ $ $ $ $ $ $ $ $ $ $ $ $ $ $ + O X o = .   = + $ $ $ $ $ $ $ $ $ $ $ $ $ $ $ $ $ $ $ $ $ $ ",
"$ $ $ $ $ $ $ $ $ $ $ $ $ $ $ $ $ $ $ N #.s.9.6.0.w.$.T $ $ $ $ $ $ $ $ $ $ $ $ $ $ $ $ $ $ $ $ $ $ ",
"$ $ $ $ $ $ $ $ $ $ $ $ $ $ $ $ $ $ $ T 6.6.O.3.1.2.5.| $ $ $ $ $ $ $ $ $ $ $ $ $ $ $ $ $ $ $ $ $ $ ",
"$ $ $ $ $ $ $ $ $ $ $ $ $ $ $ $ $ $ $ & R 6.$.s +.6.| * $ $ $ $ $ $ $ $ $ $ $ $ $ $ $ $ $ $ $ $ $ $ ",
"$ $ $ $ $ $ $ $ $ $ $ $ $ $ $ $ $ $ $ $ p *.Z Z Z ,.M $ $ $ $ $ $ $ $ $ $ $ $ $ $ $ $ $ $ $ $ $ $ $ ",
"$ $ $ $ $ $ $ $ $ $ $ $ $ $ $ $ $ $ $ $ $ | 6.3.6.;.$ $ $ $ $ $ $ $ $ $ $ $ $ $ $ $ $ $ $ $ $ $ $ $ ",
"$ $ $ $ $ $ $ $ $ $ $ $ $ $ $ $ $ $ $ $ $ m a.6.d.Q $ $ $ $ $ $ $ $ $ $ $ $ $ $ $ $ $ $ $ $ $ $ $ $ ",
"$ $ $ $ $ $ $ $ $ $ $ $ $ $ $ $ $ $ $ % n i.I.G.P.B.Q L n $ $ $ $ $ $ $ $ $ $ $ $ $ $ $ $ $ $ $ $ $ ",
"$ $ $ $ $ $ $ $ $ $ $ $ $ $ $ $ $ P y.l.B.G.P.L.P.P.G.G.j.S $ $ $ $ $ $ $ $ $ $ $ $ $ $ $ $ $ $ $ $ ",
"$ $ $ $ $ $ $ $ $ $ $ $ $ $ $ S _ K.P.P.P.P.P.P.P.P.I.I.I.z.$ $ $ $ $ $ $ $ $ $ $ $ $ $ $ $ $ $ $ $ ",
"$ $ $ $ $ $ $ $ $ $ $ $ $ J i.G.P.P.P.P.P.I.P.P.P.P.P.P.I.I.t.$ $ $ $ $ $ $ $ $ $ $ $ $ $ $ $ $ $ $ ",
"$ $ $ $ $ $ $ $ $ $ $ % ) L.I.P.P.P.P.I.P.P.P.P.P.P.I.P.I.I.I.Q $ $ $ $ $ $ $ $ $ $ $ $ $ $ $ $ $ $ ",
"$ $ $ $ $ $ $ $ $ $ $ h.I.P.P.P.Z.i.G.I.P.P.P.P.P.P.I.I.P.P.I.B.* $ $ $ $ $ $ $ $ $ $ $ $ $ $ $ $ $ ",
"$ $ $ $ $ $ $ $ $ $ $ l.P.P.P.P.L.G y.I.P.P.P.I.P.P.I.B.B.P.P.P.) $ $ $ $ $ $ $ $ $ $ $ $ $ $ $ $ $ ",
"$ $ $ $ $ $ $ $ $ $ $ L K.P.P.P.P.u.W f.:.v k g f f g w ` L.P.P.C.G $ $ $ $ $ $ $ $ $ $ $ $ $ $ $ $ ",
"$ $ $ $ $ $ $ $ $ $ $ $ ^ L.P.L.v.D 9 1 : ; ; 1 1 1 1 : y m.P.P.P.) $ $ $ $ $ $ $ $ $ $ $ $ $ $ $ $ ",
"$ $ $ $ $ $ $ $ $ $ $ $ % _ p.a.6.{ , 1 ; ; ; ; ; ; 1 1 0 ) U.P.P.l.$ $ $ $ $ $ $ $ $ $ $ $ $ $ $ $ ",
"$ $ $ $ $ $ $ $ $ $ $ $ $ $ % ,.6.6.c k k j g j j z z v } J U.P.I.L.* $ $ $ $ $ $ $ $ $ $ $ $ $ $ $ ",
"$ $ $ $ $ $ $ $ $ $ $ $ $ $ B @.6.7.b.K.L.L.L.L.L.L.K.K.K.I n.F.F.b.* $ $ $ $ $ $ $ $ $ $ $ $ $ $ $ ",
"$ $ $ $ $ $ $ $ $ $ $ $ $ p ..3.7.s.K.L.L.L.L.L.P.L.L.K.K.h.n o.3. .$ $ $ $ $ $ $ $ $ $ $ $ $ $ $ $ ",
"$ $ $ $ $ $ $ $ $ $ $ $ $ p ..,.w.S.L.L.L.L.L.L.P.P.P.K.K.K.n ;.5.4.N $ $ $ $ $ $ $ $ $ $ $ $ $ $ $ ",
"$ $ $ $ $ $ $ $ $ $ $ $ $ $ $ % h.L.L.K.L.L.P.P.P.P.P.L.K.K.e.7.6.6.X.$ $ $ $ $ $ $ $ $ $ $ $ $ $ $ ",
"$ $ $ $ $ $ $ $ $ $ $ $ $ $ $ S Z.L.L.L.P.L.P.P.P.P.U.L.L.S.g.r.7.7.X.# $ $ $ $ $ $ $ $ $ $ $ $ $ $ ",
"$ $ $ $ $ $ $ $ $ $ $ $ $ $ $ Q L.L.L.L.P.U.U.U.P.P.U.L.L.L.L.1.>...T # $ $ $ $ $ $ $ $ $ $ $ $ $ $ ",
"$ $ $ $ $ $ $ $ $ $ $ $ $ $ $ u.P.P.I.P.P.P.P.U.P.P.P.P.L.P.P.8.U a % $ $ $ $ $ $ $ $ $ $ $ $ $ $ $ ",
"$ $ $ $ $ $ $ $ $ $ $ $ $ $ $ C.L.L.P.P.P.P.P.P.P.P.P.P.L.L.L.l.$ $ $ $ $ $ $ $ $ $ $ $ $ $ $ $ $ $ ",
"$ $ $ $ $ $ $ $ $ $ $ $ $ $ G L.P.P.P.P.P.P.P.P.U.P.P.P.P.L.P.C.* $ $ $ $ $ $ $ $ $ $ $ $ $ $ $ $ $ ",
"$ $ $ $ $ $ $ $ $ $ $ $ $ $ ) L.P.P.P.P.P.I.P.P.P.P.P.P.P.P.P.K.F $ $ $ $ $ $ $ $ $ $ $ $ $ $ $ $ $ ",
"$ $ $ $ $ $ $ $ $ $ $ $ $ $ j.I.P.P.P.P.P.P.P.P.P.P.P.P.P.P.P.P.P $ $ $ $ $ $ $ $ $ $ $ $ $ $ $ $ $ ",
"$ $ $ $ $ $ $ $ $ $ $ $ $ $ B.I.P.P.P.P.P.I.I.P.P.P.P.P.P.P.P.P./ $ $ $ $ $ $ $ $ $ $ $ $ $ $ $ $ $ ",
"$ $ $ $ $ $ $ $ $ $ $ $ $ $ B.L.I.I.I.I.I.P.P.P.P.P.I.P.I.B.' ~ S $ $ $ $ $ $ $ $ $ $ $ $ $ $ $ $ $ ",
"$ $ $ $ $ $ $ $ $ $ $ $ $ $ G ^ y.l.B.G.I.L.P.P.P.P.L.Z.z.~ $ $ $ $ $ $ $ $ $ $ $ $ $ $ $ $ $ $ $ $ ",
"$ $ $ $ $ $ $ $ $ $ $ $ $ $ # $ $ $ n U <.<.! G Y ,.,.U $ $ $ $ $ $ $ $ $ $ $ $ $ $ $ $ $ $ $ $ $ $ ",
"$ $ $ $ $ $ $ $ $ $ $ $ $ $ $ $ $ $ % V =.@.V $ B @.=.{ % $ $ $ $ $ $ $ $ $ $ $ $ $ $ $ $ $ $ $ $ $ ",
"$ $ $ $ $ $ $ $ $ $ $ $ $ $ $ $ $ S K.A.4.3.$.H %.-.3.N.Z.L $ $ $ $ $ $ $ $ $ $ $ $ $ $ $ $ $ $ $ $ ",
"$ $ $ $ $ $ $ $ $ $ $ $ $ $ $ $ * k.P.L.S.r.q.L 9.a.A.L.I.x.* $ $ $ $ $ $ $ $ $ $ $ $ $ $ $ $ $ $ $ ",
"$ $ $ $ $ $ $ $ $ $ $ $ $ $ $ $ ' L.L.J.m./ * $ & W m.J.L.L.i.$ $ $ $ $ $ $ $ $ $ $ $ $ $ $ $ $ $ $ ",
"$ $ $ $ $ $ $ $ $ $ $ $ $ $ $ $ k.J.c.` G % $ $ $ $ F ) c.H.V.$ $ $ $ $ $ $ $ $ $ $ $ $ $ $ $ $ $ $ ",
"$ $ $ $ $ $ $ $ $ $ $ $ $ $ $ $ $ $ $ $ $ $ $ $ $ $ $ $ $ $ $ $ $ $ $ $ $ $ $ $ $ $ $ $ $ $ $ $ $ $ ",
"$ $ $ $ $ $ $ $ $ $ $ $ $ $ $ $ $ $ $ $ $ $ $ $ $ $ $ $ $ $ $ $ $ $ $ $ $ $ $ $ $ $ $ $ $ $ $ $ $ $ "
};
