/* XPM */
static char *result[] = {
/* columns rows colors chars-per-pixel */
"50 50 83 1 ",
"  c #071635",
". c #081636",
"X c #0A1836",
"o c #0D1B38",
"O c #111F3B",
"+ c #15223C",
"@ c #1A263F",
"# c #152340",
"$ c #1B2742",
"% c #1E2A42",
"& c #232E45",
"* c #263146",
"= c #293347",
"- c #2B3549",
"; c #2E384C",
": c #30374C",
"> c #343C4E",
", c #383F4F",
"< c #363E50",
"1 c #383F50",
"2 c #374051",
"3 c #3C4353",
"4 c #324A6E",
"5 c #3F536F",
"6 c #3C4F70",
"7 c #3D5170",
"8 c #404755",
"9 c #424857",
"0 c #454C59",
"q c #494E5A",
"w c #4D525D",
"e c #51565F",
"r c #465764",
"t c #4C5660",
"y c #455864",
"u c #495C66",
"i c #4D5E69",
"p c #525761",
"a c #555A62",
"s c #595D64",
"d c #4F696E",
"f c #5D6067",
"g c #53676D",
"h c #5D6469",
"j c #53686E",
"k c #4D6D74",
"l c #556273",
"z c #596474",
"x c #526D73",
"c c #457B7F",
"v c #4C7B7E",
"b c #547176",
"n c #5C7275",
"m c #547579",
"M c #5A7679",
"N c #547B7D",
"B c #5B7A7C",
"V c #62656A",
"C c #65696D",
"Z c #6A6B6E",
"A c #646B70",
"S c #6D6F70",
"D c #637376",
"F c #6D7475",
"G c #677977",
"H c #6A7977",
"J c #637679",
"K c #6B7778",
"L c #647A7A",
"P c #6B7979",
"I c #737373",
"U c #717879",
"Y c #43807C",
"T c #4A807B",
"R c #51807B",
"E c #3C7C81",
"W c #437C80",
"Q c #4C7C80",
"! c #527C81",
"~ c #597F83",
"^ c #5B8184",
"/ c #658284",
"( c #688386",
/* pixels */
"IIIIIIIIIIIIIIIIIIIIIIIf:0ZIIIIIIIIIIIIIIIIIIIIIII",
"IIIIIIIIIIIIIIIIIIIULJI&  qFLLIIIIIIIIIIIIIIIIIIII",
"IIIIIIIIIIIIIIIIF!INccC+  *BcWF!vKIIIIIIIIIIIIIIII",
"IIIIIIIIIIIIeqVFEWFIIFI2o+aIIIIPcWI83eIIIIIIIIIIII",
"IIIIIIIIIIIVo osJIs:qS-VsC08C$$fII, .OZIIIIIIIIIII",
"IIIIIIIIIIIa.  qII;#OpOV:q,@w XqCZ= ..SIIIIIIIIIII",
"IIIIIIIIIFNC$X$S+<tO*SaaNJ9ZC&&VX,V+o2MQIIIIIIIIII",
"IIIIIIIILEWIZfasqpSZSIz*Ng:KIFIIeZ8VVILWcIIIIIIIII",
"IIIIIIIFHLII,8piZ=LFIvmZwfCvBILn&KuCOqIIKKLIIIIIII",
"IIIIIIIcFIZC&2I!bwNWHL3-3f+hJLvM0WJf-q3qILcHIIIIII",
"IIIIIINvIV. aS%tkV%VIKMJ3eMBIF9-tn33I2. VIcBIIIIII",
"IIIICZMIIa +pPmS2eaMvPvL2wNvFcMZ3pCQIa%.FIICeVIIII",
"IIIaO.,IqwwwS(m+Z3tNFI2,wf+VIhL-wp*QPIZI&>C@ oeIII",
"III8..oV+;IIPPIAB3pa&Bks9wpNk@FqhvKIU(KZ,8so  wIII",
"III9..OVVV2v!IFWnV1qtzs&*0%Zra-w9MNFFbm&Sea@ oVIII",
"IIII,=V8gJ8C=KNIq:a201ISpCZS803V=ZIQA+FwNuVZwaJIII",
"IIKWIS>ZFcnepvMZLk-:sFPN7zNLF0t%B/qnNC2kxCq+IJcKII",
"IIQWIC#a&qw3wh8=mSeI4DKhSsZDz5IaZm;V38wCw=w-IIcvII",
"II!KSwsInJ-Z;qwV%aINCCwVhhS2FC^Ue=p2eta&NJV2eIFFII",
"IIKI3$$ZBQ9bLS-3eINU2SSIRLIJVwI^I;3qeMMV^F= +CINII",
"ILWI3X+ZILIWh+aqq7C9IGTUTGGYII,C4s9w*AQIJF2X@ZIcFI",
"ILWISwVIBLIFIxy8FlSVUITGRURBILSZDF1zLIKKJcSVeZIcJI",
"IFMI3$SLvhBNCNSSLJ1DYBIPL/PUTTFqKKFfk3!M3mgs+-ICSI",
"Sq*a9,0;C+MN+t%ZNAIIGRUREEQHGIIVV!S&s<LJ;Z*aVV2+&V",
"0  OSqDjsftwfw9CzffGRGMcEEELLRRCS7t=9t>30tNN;sX  :",
":  oa:NQtq3,w9*p5CCRRLB^EEWBHLLhszC0qVwpsskJqS+  q",
"V&O1Vfa=S-JL,s&SNhVIIHHRWW~URGISANS%t#!M+C>9>9a*qZ",
"IIAI-Osgm3Mv3khFPHwFTTIILPUIRYD2DLSSMCmBfvLZ%3IMII",
"ILWIZaZIvPHPIBz1HDZSGUBRHGGTIIVIlI3rkIPIPBs3VIIcJI",
"ILWIfOOVIPIvS*w0s4A3IIYGRTFTHI9Z6qqa#hWILF+ *IIWJI",
"IPNIq..eFWVMNpq3>I~U0VDIHRISF2UNIe3-FJb9QM%O,IIHII",
"IIIIZ::SL!%ptp1p*aI!CS2IfZVwVCRFe%Veq-S*JnSaIIHNII",
"II!cII-q=qCe33V;bSsI7lDSaShFD4IeSN=9hw3t0*p#CIWQII",
"IIKEJF+qZxk3ZMnqLN%p0IL!z6!PIa:-xLZJvppn!KZ<SIWFII",
"IIIKfqSsuNwZ+DQIS*f3q3FSApSI293p;wINF*A0Lu8C*<IIII",
"SIIVX $aeI%NmIFNJ3p;ayS%9=&sztq1fnWFF!c2VCVO  9III",
"IIIq..Xf3,SKLUUKvhqS+xNwq9ak~=pp3BCFHPII=OVX .8III",
"IIIao %Z,&IIIPv=pw-LhIC+Vt<3ISNt3C+m(Ip<qqI3.OaIII",
"IIIIfsVIIf+;FIvCp8CMWPNNq<JQKQMpp2SNHZ% 3IJMICIIII",
"IIIIIIBWI3..sI33bw=9FIBMa3JMFIV%Cxw%SZooaIWmIIIIII",
"IIIIIIFcLZ&=e-VJc9JvJHh+fq-3PKWNqM^I,&IZIKWFIIIIII",
"IIIIIIIFFKSIqOVyF&nLFMvCatSmQIKJ:Sup8>IILKIIIIIIII",
"IIIIIIIIIWWJIVV8ZeIawIJ>kv&jIZCFwqsasZIWEPIIIIIIII",
"IIIIIIIIIFQN3o+C>XaoXqZ9JNssS*#3:+Z@o$VMFIIIIIIIII",
"IIIIIIIIIIII...=SZVX.9$<q:Voa&$-IIq...sIIIIIIIIIII",
"IIIIIIIIIIICO. ,FIIeeS3qZsV-Zf;fILso.OfIIIIIIIIIII",
"IIIIIIIIIIIIa33IWWKIIIIaO.,IIFIFWcKVqeIIIIIIIIIIII",
"IIIIIIIIIIIIIIIIKQNFWWM=. OZWcNIvKIIIIIIIIIIIIIIII",
"IIIIIIIIIIIIIIIIIIIIIKIq .&IJJHIIIIIIIIIIIIIIIIIII",
"IIIIIIIIIIIIIIIIIIIIIIIZ0:VIIIIIIIIIIIIIIIIIIIIIII"
};
