/* XPM */
static char *result[] = {
/* columns rows colors chars-per-pixel */
"50 50 194 2 ",
"   c #080206",
".  c #3D1A1C",
"X  c #3B3636",
"o  c #481F1E",
"O  c #471F25",
"+  c #4C1F22",
"@  c #462021",
"#  c #402C2C",
"$  c #572E29",
"%  c #55312D",
"&  c #493638",
"*  c #5E3F3A",
"=  c #573834",
"-  c #603730",
";  c #643D3A",
":  c #68403B",
">  c #74473F",
",  c #4B4545",
"<  c #594547",
"1  c #5A4C4D",
"2  c #554643",
"3  c #5A4F51",
"4  c #6C4642",
"5  c #604548",
"6  c #624D4D",
"7  c #6C4B4B",
"8  c #6C4B45",
"9  c #764742",
"0  c #744D46",
"q  c #74504B",
"w  c #655252",
"e  c #6B5252",
"r  c #695658",
"t  c #655859",
"y  c #685E5E",
"u  c #6C5A56",
"i  c #725050",
"p  c #7F5751",
"a  c #755A55",
"s  c #7B5B56",
"d  c #7D5C5B",
"f  c #7C625D",
"g  c #74625F",
"h  c #676161",
"j  c #6B6363",
"k  c #6D696A",
"l  c #746564",
"z  c #7D6561",
"x  c #726C6D",
"c  c #7C6864",
"v  c #737373",
"b  c #787777",
"n  c #7C7A7A",
"m  c #814A43",
"M  c #85524C",
"N  c #8E554D",
"B  c #835D54",
"V  c #805E5C",
"C  c #935C54",
"Z  c #86645D",
"A  c #8D655C",
"S  c #846153",
"D  c #856562",
"F  c #836964",
"G  c #8B6C66",
"H  c #846F69",
"J  c #8B6F6A",
"K  c #8B6763",
"L  c #926C65",
"P  c #8D726C",
"I  c #93736C",
"U  c #9C756D",
"Y  c #9C7A6F",
"T  c #827573",
"R  c #8E7570",
"E  c #8B7A76",
"W  c #867A7D",
"Q  c #8D7D79",
"!  c #947674",
"~  c #997771",
"^  c #957A73",
"/  c #9B7B74",
"(  c #927E7A",
")  c #9C7F79",
"_  c #A07770",
"`  c #A37C74",
"'  c #81807F",
"]  c #95837E",
"[  c #9C827C",
"{  c #A48076",
"}  c #A4847C",
"|  c #AB857E",
" . c #A5887F",
".. c #AB897E",
"X. c #B68477",
"o. c #B98A7D",
"O. c #868280",
"+. c #8A8684",
"@. c #8D8A87",
"#. c #948481",
"$. c #9A8681",
"%. c #9D8A85",
"&. c #978C89",
"*. c #9C8D89",
"=. c #95918D",
"-. c #9D918D",
";. c #9A9896",
":. c #A58780",
">. c #A38983",
",. c #AC8981",
"<. c #A98F88",
"1. c #B48B84",
"2. c #BC8B81",
"3. c #A79087",
"4. c #AF9087",
"5. c #A2938D",
"6. c #AC948B",
"7. c #B29085",
"8. c #B4938A",
"9. c #B9958B",
"0. c #BE998F",
"q. c #B69A8E",
"w. c #A49691",
"e. c #AC9693",
"r. c #AC9A95",
"t. c #A99E99",
"y. c #A39D97",
"u. c #B89790",
"i. c #B29B94",
"p. c #BC9B93",
"a. c #B29F9D",
"s. c #BB9E9B",
"d. c #A4A09C",
"f. c #B3A29C",
"g. c #BAA39C",
"h. c #ADA5A0",
"j. c #B3A4A1",
"k. c #B4AEAC",
"l. c #B6A9A4",
"z. c #BFB1A7",
"x. c #BEB1AA",
"c. c #C28C83",
"v. c #C3978B",
"b. c #C59A8F",
"n. c #C99789",
"m. c #C59E95",
"M. c #CA9C90",
"N. c #D09E93",
"B. c #C5A196",
"V. c #C9A297",
"C. c #C4A59B",
"Z. c #CDA399",
"A. c #CEAA9E",
"S. c #DAAA9A",
"D. c #D5A899",
"F. c #C2A7A1",
"G. c #C4ABA4",
"H. c #C2ADA9",
"J. c #D2ACA3",
"K. c #CEB0A7",
"L. c #CFB3A9",
"P. c #DCB2A5",
"I. c #D2B3AA",
"U. c #DBB5A9",
"Y. c #DDBAAE",
"T. c #CCBDB7",
"R. c #D4BDB4",
"E. c #DBBDB3",
"W. c #D2BFBB",
"Q. c #E3B5A5",
"!. c #E1B8AB",
"~. c #E3B6AB",
"^. c #E7BEB0",
"/. c #DDC0B6",
"(. c #D2C5BC",
"). c #DBC3BB",
"_. c #E9C0AD",
"`. c #ECC4B5",
"'. c #E3C7BD",
"]. c #E9C4B9",
"[. c #E7C5B7",
"{. c #F1C5B6",
"}. c #DDCDC6",
"|. c #E3CCC6",
" X c #ECCEC2",
".X c #F0CFC2",
"XX c #E7D3C6",
"oX c #EBD0C3",
"OX c #EBD5CB",
"+X c #E8D6CB",
"@X c #F9D6C6",
"#X c #F9DFCE",
"$X c #ECDBD4",
"%X c #F3DBD0",
/* pixels */
"v v v v v v v v v v v v v v v v v v v v v v v v v v v v v v v v v v v v v v v v v v v v v v v v v v ",
"v v v v v v v v v v v v v v v v v v v v v v v v v v v v v v v v v v v v v v v v v v v v v v v v v v ",
"v v v v v v v v v v v v v v v v v v v v v v v v v v v v v v v v v v v v v v v v v v v v v v v v v v ",
"v v v v v v v v v v v v v v v v v v v v v v v v v v v v v v v v v v v v v v v v v v v v v v v v v v ",
"v v v v v v v v v v v v v v v v v v v v v v v v v v v v v v v v v v v v v v v v v v v v v v v v v v ",
"v v v v v v v v v v v v v v v v v v v v v v v v v v v v v v v v v v v v v v v v v v v v v v v v v v ",
"v v v v v v v v v v v v v v v v v v v v v v v v v v v v v v v v v v v v v v v v v v v v v v v v v v ",
"v v v v v v v v v v v v v v v v v v v v v v v v v v v v v v v v v v v v v v v v v v v v v v v v v v ",
"v v v v v v v v v v v v v v v v v v v v v v v v v v v v v v v v v v v v v v v v v v v v v v v v v v ",
"v v v v v v v v v v v v v v v v v v v v v v v v v v v v v v v v v v v v v v v v v v v v v v v v v v ",
"v v v v v v v v v v v v v v v v v v v v v v v v v v v v v v v v v v v v v v v v v v v v v v v v v v ",
"v v v v v v v v v v v v v v v v v v v v v v v v v v v v v v v v v v v v W ;.=.=.+.b v v v v v v v v ",
"v v v v v v v v v v v v v v v v v v v v v v v v v v v v v v v v v v v ;.d.E %.] ] t.n v v v v v v v ",
"v v v v v v v v v v v v v v v v v v v v v v v v v v v v v v v v v v y.r.[ l.c E f.R f.v v v v v v v ",
"v v v v v v v v v v v v v v v v v v v v v v v v v v v v v v v v v n h.>.] F K G P [ :.-.v v v v v v ",
"v v v v v v v v v v v v v v v v v v v v v v v v v v v v v v v =.v k.w.*.f a >.* H J ] q.b v v v v v ",
"v v v v v v v v v v v v v v v v v v v v v v v v v v v v v v v T.@.(.%.T a 8 /.% q ! [ / &.v v v v v ",
"v v v v v v v v v v v v v v v v v v v v v v v v v v v v v v @.g.H.>.] c 4 { ].Z m B Z 7.i.i.b v v v ",
"v v v v v v v v v v v v v v v v v v v v v v v v v v v v b n j.I.8.e.R z : B.[.| N M ` I 7. .+.v v v ",
"v v v v v v v v v v v v v v v v v v v v v v v v v v v v v ;.x $.E.l.! q ; A.{.[.C M S ` ^ 7.^ @.v v ",
"v v v v v v v v v v v v v v v v v v v v v v b b v v v v v k.W w /.3.D ,.1.A.Q._.A ` 1.B | f   y.v v ",
"v v v v v v v v v v v v n +.b n n +.b h.' d.$XOX|.}.).R.x.x.W.e.C.| ` I K !.{.~.I ` U s 8.p.$.&.v v ",
"v v v +.r.] Q Q Q Q Q (  .V.F.g.l.I.H.[.(.).+X).U.K.P.`.I.e.$.B.8.9.s _ U 8.`.[.s B U U p./ l k v v ",
"v v v t.U.B.p.0.p.p.8.m.M.M.S.U.Y.P.].@X+XXX+XoX[.[.Q.S.C.G.%.3.[ 0.I | 1.| J.m.U | U U 4.:.#.v v v ",
"v v v f.P.b.v.v.0.B.v.v.v.n.!.].|.'.%XOX}.}.+XOX#X@X].E.g.( j < Z.7.J ` G B.8.8.L ,.I I / e n v v v ",
"v v v Q } ~ [ e u ] I I a 2.:.s.u.H.a.H.#.s.T.$XXXY.p.! 5 & 1 1 v.Y ^ I G D.].J.V.v.I } I 1 x v v v ",
"v v v h g L f X X f 4 z X e < 6 6 w 3 w t w e d d i e y j j x ( L ../ ^ } | ~.o.m.p.J  .m.b v v v v ",
"v v v v *.L J v v ) 0 $.v v v v v v v v v v v v v v v v v v W r.1.D.Y I | <.N.J.7.F f :.R.v v v v v ",
"v v v v -.A ^ v v [ 0 *.v v v v v v v v v v v v v v v v v v k & I.z ,./ I ~ c./ } } *. .&.v v v v v ",
"v v v v -.S ] v v ^ q 6.v v v v v v v v v v v v v v v v v v v k p., ,./ } D K H d r.>.G.v v v v v v ",
"v v v v w.p J v v ~ 7 e.v v v v v v v v v v v v v v v v v v v v D k ~ 0.J 8./ 4.r.$.g.] v v v v v v ",
"v v v @.q.> = q.$.0 % <.O.v v v v v v v v v v v v v v v v v v v v v y G M.G P / ) g.] v v v v v v v ",
"v v v f.7.> = 8...= $ s 5.v v v v v v v v v v v v v v v v v v v v v x t L Z.Z.Z.m.P h v v v v v v v ",
"v v v -.q.9.9...I o.X.2.-.v v v v v v v v v v v v v v v v v v v v v v x h 6 7 7 w j v v v v v v v v ",
"v v v 6 o o o . # . . @ W v v v v v v v v v v v v v v v v v v v v v v v v v v v v v v v v v v v v v ",
"v v v x j k x v x j y j v v v v v v v v v v v v v v v v v v v v v v v v v v v v v v v v v v v v v v ",
"v v v v v v v v v v v v v v v v v v v v v v v v v v v v v v v v v v v v v v v v v v v v v v v v v v ",
"v v v v v v v v v v v v v v v v v v v v v v v v v v v v v v v v v v v v v v v v v v v v v v v v v v ",
"v v v v v v v v v v v v v v v v v v v v v v v v v v v v v v v v v v v v v v v v v v v v v v v v v v ",
"v v v v v v v v v v v v v v v v v v v v v v v v v v v v v v v v v v v v v v v v v v v v v v v v v v ",
"v v v v v v v v v v v v v v v v v v v v v v v v v v v v v v v v v v v v v v v v v v v v v v v v v v ",
"v v v v v v v v v v v v v v v v v v v v v v v v v v v v v v v v v v v v v v v v v v v v v v v v v v ",
"v v v v v v v v v v v v v v v v v v v v v v v v v v v v v v v v v v v v v v v v v v v v v v v v v v ",
"v v v v v v v v v v v v v v v v v v v v v v v v v v v v v v v v v v v v v v v v v v v v v v v v v v ",
"v v v v v v v v v v v v v v v v v v v v v v v v v v v v v v v v v v v v v v v v v v v v v v v v v v ",
"v v v v v v v v v v v v v v v v v v v v v v v v v v v v v v v v v v v v v v v v v v v v v v v v v v ",
"v v v v v v v v v v v v v v v v v v v v v v v v v v v v v v v v v v v v v v v v v v v v v v v v v v ",
"v v v v v v v v v v v v v v v v v v v v v v v v v v v v v v v v v v v v v v v v v v v v v v v v v v ",
"v v v v v v v v v v v v v v v v v v v v v v v v v v v v v v v v v v v v v v v v v v v v v v v v v v ",
"v v v v v v v v v v v v v v v v v v v v v v v v v v v v v v v v v v v v v v v v v v v v v v v v v v "
};
