/* XPM */
static char *c78aee4a79d342d3ec7fb2b0dc1a1bd5el9DhzQ74h3xlPxJ[] = {
/* columns rows colors chars-per-pixel */
"50 50 135 2 ",
"   c #1C1A15",
".  c #1F1D18",
"X  c #221E1A",
"o  c #25221D",
"O  c #29241E",
"+  c #272621",
"@  c #2B2622",
"#  c #2D2925",
"$  c #322C26",
"%  c #332E29",
"&  c #36312C",
"*  c #3A332E",
"=  c #373631",
"-  c #3C3631",
";  c #3E3934",
":  c #3E3C39",
">  c #423B36",
",  c #483F37",
"<  c #443E39",
"1  c #483F39",
"2  c #46413B",
"3  c #4B433D",
"4  c #50463E",
"5  c #4D4641",
"6  c #4E4943",
"7  c #504742",
"8  c #524B45",
"9  c #584E46",
"0  c #544E49",
"q  c #584F49",
"w  c #595147",
"e  c #56514B",
"r  c #5B534D",
"t  c #5F584F",
"y  c #575552",
"u  c #5C5651",
"i  c #5E5953",
"p  c #5F5B59",
"a  c #61574E",
"s  c #615750",
"d  c #635B54",
"f  c #695F56",
"g  c #645E59",
"h  c #695F58",
"j  c #6A6057",
"k  c #66605A",
"l  c #6B635C",
"z  c #71675E",
"x  c #70685E",
"c  c #656465",
"v  c #6B6562",
"b  c #6D6964",
"n  c #676768",
"m  c #6B6B6C",
"M  c #706760",
"N  c #746C64",
"B  c #786E65",
"V  c #736E6B",
"C  c #71706F",
"Z  c #7B726C",
"A  c #6E6F71",
"S  c #6F7072",
"D  c #737375",
"F  c #7A7775",
"G  c #7F7A74",
"H  c #767778",
"J  c #787778",
"K  c #77787A",
"L  c #7A7B7D",
"P  c #847B74",
"I  c #817E7E",
"U  c #86827D",
"Y  c #8A837E",
"T  c #7E7F81",
"R  c #7F8082",
"E  c #828385",
"W  c #8A8480",
"Q  c #868789",
"!  c #87888A",
"~  c #87888A",
"^  c #88898B",
"/  c gray54",
"(  c #898A8C",
")  c #8A8B8D",
"_  c #8B8C8E",
"`  c #8C8D8F",
"'  c #8E8D8E",
"]  c #8A8B8D",
"[  c #8D8E90",
"{  c #8E8F91",
"}  c #8D8E90",
"|  c #8F9092",
" . c #8F9092",
".. c #909193",
"X. c #919294",
"o. c #929395",
"O. c #949394",
"+. c #939496",
"@. c gray58",
"#. c #949597",
"$. c #979797",
"%. c #929395",
"&. c #959698",
"*. c #969799",
"=. c #969799",
"-. c #97989A",
";. c #97989A",
":. c #98999B",
">. c #9B9A9A",
",. c #999A9C",
"<. c #9A9B9D",
"1. c #9C9B9C",
"2. c #9B9C9E",
"3. c #9C9D9F",
"4. c #9A9B9D",
"5. c #A09F9F",
"6. c #9D9EA0",
"7. c #9E9FA1",
"8. c #9D9EA0",
"9. c #9FA0A2",
"0. c #9FA0A2",
"q. c #A1A0A0",
"w. c #A2A0A1",
"e. c #A0A1A3",
"r. c #A3A1A2",
"t. c #A1A2A4",
"y. c #A2A3A5",
"u. c #A3A4A6",
"i. c #A4A5A7",
"p. c #A5A6A8",
"a. c #A6A7A9",
"s. c #A7A8AA",
"d. c #A8A9AB",
"f. c #A9AAAC",
"g. c #AFB0B2",
/* pixels */
"o.| 7.p.y.#.| ` ..&.#.:.i.p.p.d.p.f.p.s.7.( ` { ( Q _ Q R Q L L Q T R L E E L H T Q / ` Q R J L R ! ",
"! +.y.p.u.9..._ { :.y.y.e.p.s.p.g.g.p.i.-.` ( Q E E Q Q E Q Q E T K L T L T L E R L L E Q Q T R E Q ",
"..&.3.p.e.2.-.&.#.#.#.1.:.e.:.5.e.e.#.O.` / Q E E I J L L L J J J D V D D J F D D L T E Q ! Q Q ( ( ",
"&.&.2.i.9.7.7...-.Y G Z P N G V Z V l V l N b g z d k j d d u i i t u e e 0 0 r 0 J K R E ! Q Q { &.",
"&.:.7.7.2.3.<.3.{ U k l k 0 l 6 g u 0 d 8 d 8 r a 7 d 5 t 0 8 i 5 a 8 0 r 5 i 5 0 D L K E Q ! / { { ",
":.&.7.y.9.y.<.<.` Y P x X . . X X X X X X X o o X o o o X o o o X O o X o X d d i K L L E / _ _ ( ` ",
"<.:.<.7.7.7.3.<...Y g g % r 0 d d 8 u d r 6 u u 0 8 i u 5 e t r 1 r e 2 8 > d e e L T T L L Q Q ..&.",
"<.2.3.-.:.:.9...{ Y P N * h d N N r l M k e v b d u M l 0 g l k 3 j k 6 t 3 g k d J L L L T E _ ( o.",
"{ <.9.<.{ o.{ :.o.Y N k * k d N N i l M k e b l d a z l 0 k l l 5 l k 8 i 3 d i u H J L E Q E ! _ ( ",
"{ o.&.3.&.| ` { o.Y M b - k d N N t l k r 6 i i 9 9 d d 3 r g k 6 l k 7 i 3 d r i D L R Q E Q ` | E ",
"! Q { &.o.| ` ..o.W P N * h d N N r g d k g k d k l k h g l 0 i 7 l j 0 d 3 i d g L T Q Q Q Q / ` ( ",
"E E ( ` { { o.` +.Y i g * k d N N r g d g e c p p c p v r l r r 6 l l 8 d 3 d 0 u J L E E E ( ( / ( ",
"T T E ( o.( o...#.U G V * g i N N r i u g V R D J L F E D m 6 e 5 l k 8 i 3 d g d H T Q Q L L E ( / ",
"R ( ..{ { &.o.3.<.U N g * d u N b u u t g m T D D E D { V m 6 0 6 j k 8 d 5 r u u D L E L E R E ( ..",
"Q T _ | { _ ( +.| G k k & t t b b w i i v m E L F R D R V V w 0 3 j k 7 i 5 d r d L T E L J E E / ( ",
"E _ &.+.+.` o.&.o.P Z l & t w l l e u r g m L L J K F E V b 6 8 3 f g 6 i 3 u i d D L L L T T _ ( Q ",
"( +.<.#.&.#...o.o.G d s & t w l l 8 r r g m J F D K D E m b 4 8 3 f d 6 t 2 u e i H L R L L E E Q Q ",
"&.:.3.7.#.o.&.+.:.Z B l % r w l l 0 r r v m H D F E D T v b 0 7 3 k f 7 u 3 i u g L E ! R T Q E E E ",
"<.3.&.<.&.<.&.{ &.V g t % r q b v 0 e 0 i m H C D H D E b v 5 7 3 f g 8 i 2 r e u L T Q Q Q R ( _ { ",
":.o.3.9.<.9.<...` N d d % w 0 l l 7 0 0 g b H D D L D E b v 5 7 2 g d 7 u 2 u r i D R R R L ( ! _ ` ",
"9.#.2.9.&.+.&.#.&.N b d $ 0 7 g g 6 0 0 g v D v m D b D g v 8 5 2 d d 3 r 1 r e d J T E Q / ! ( ! _ ",
"+.+.o.&.2.-.#.+./ v 0 e $ 0 7 d d 5 0 5 6 6 0 8 8 0 0 0 8 w 2 5 2 d u 3 e < r 0 u D T T T T E E ! ..",
"! o.+.<.-.+.` | Q l v g $ 8 5 u u 3 0 1 % $ % % % % & & $ & - 0 2 t e 2 0 > e r g J H K R T Q _ { &.",
"E / o.#.-...<.{ ` g r 0 # 5 2 e q 1 8 0 8 3 e 0 3 3 r r 7 8 r r > 0 8 > 5 - 5 6 r L E T E T Q / { +.",
"T ( { o.| / | ( ! d 8 w @ 3 > 1 > - 0 0 7 2 0 0 3 3 w r 0 8 0 7 & ; ; % - % 2 > e L T E T T T Q { | ",
"E / ` | { Q ..( E g g r # 2 * t e - e r r 8 i u e 8 d d 0 t r 7 3 8 e e e 0 0 e 6 L E L L T T Q Q { ",
"Q ! ` { ( ` #._ L e 3 3 % > ; i e & 5 5 8 5 0 8 8 6 8 7 3 5 3 < 8 g N N N b l t 3 m L E L L E Q / / ",
"L R Q T ! Q / E v @ @ @ O # $ d r @ % & * * - - > ; > > - - * % 3 l N N N N N 8 1 k D J L T T L R E ",
"E Q ! E E Q _ ( L 0 8 3 . X o r 0   o + o @ # # @ $ $ % @ % % @ 1 r k k g i d g 6 D K L L K L J D L ",
"R / ( E ( Q E T J i w u @ & % * & o ; > ; - < < > < 3 3 ; 2 3 > - - ; - ; - < 5 e D L D D D D R L E ",
"! ` { E E E ( E L i g i $ 5 2 < # # 0 u 0 6 i u 0 0 d d 7 u d u > - * $ & # 6 8 g D A A D H L K T / ",
"/ E Q E E E Q T H u 6 r % 6 3 r > & e i 0 6 i i 0 r g g 8 d k g 3 8 3 ; 2 * u r d D S m D D J E E Q ",
"_ Q ( E E E / L L y i d % 6 3 t t 2 e u 8 3 u i 0 w g k 8 d k d 5 d i 3 e 1 i r d H H H D J E E Q ! ",
"{ Q Q Q E E E L L y 0 e % 5 3 i u 3 e u 8 5 u i 0 w g g 6 d k d 3 d d 5 u 2 r 0 i D J L L L L E R E ",
"Q Q Q ( Q R E R J 0 6 r % 3 2 t t 2 e u 8 5 i t 0 r k d 5 i g d 2 d d 3 u 2 d u d D K K T L ! E Q L ",
"Q E Q E E Q E Q L 0 t r $ 3 , w r 2 e u 8 5 i u 0 e g g 5 i k g 2 d s 3 r 2 u r d D D D H L L E R Q ",
"Q ! E E E E E L L 6 1 7 $ 3 , w w < e u 8 3 u u 8 r g d 3 d g d 2 d s 2 w 1 u e i D m A D D L R Q E ",
"L E H T Q Q E R H 5 8 r $ 2 1 r t < 0 r 6 3 r u 8 9 j d 3 a g d 2 d d 3 r 2 i u i J H m m D L E Q J ",
"E T T T E Q E L L 3 7 7 $ 2 < r r < 8 e 5 3 w t 7 9 d d 3 t g d 2 d d 3 u 2 e q u J L A K T E E T L ",
"L T T L ! E E E H 2 1 0 # 2 > e e > 8 r 5 3 r r 4 8 d a , r d t 1 d a 3 r 1 i u i D L J L L L L L H ",
"L H L L T L L E K : 5 0 # < ; 8 0 ; 6 0 5 2 0 e 3 8 a t 1 w i r > t t 2 e < r 0 u D T L L J L J J J ",
"L H J H L E E E H : ; 5 # > - 6 8 - 5 8 3 < 0 0 2 3 t t > 0 u r > t r < 8 < r 0 u H K J K D L L K L ",
"D L T L L E H R D : < 0 @ ; * 5 5 * 3 6 1 > 8 8 1 3 9 9 > 8 r e > w 0 > 8 > r e u L S D L L K L T T ",
"S H T E E R E L K = > 3 O * & 1 1 % > 2 ; - 3 3 > > 4 4 * 3 7 6 * 7 5 - 3 - 8 8 e L L H D H L L T L ",
"D L L T E R L T H * * 3 O $ @ % & @ % % % $ & & % % * * # & * * $ * * $ - % e e r S D D K K J L H L ",
"T L T L E H L L H ; 1 5 7 7 7 7 8 8 8 8 8 0 0 6 0 8 q 0 w 0 0 w 0 r 0 t e r i e u J H H H H L H D D ",
"L K L T T D H L A : > ; ; ; > 1 ; < > 1 1 2 5 1 5 5 8 8 8 8 0 0 e e e r 0 u u u i K L H K H H H H D ",
"T H J L K D H H D n c c n m m n m m n n n n m m n m m m m m m m m n m D m m m m D D H K R T D D D A ",
"L J L L D L D D H D A D D J L D D L H S H D D D D H J D K D m D m A m R D J D D L J L ! { Q D D A D ",
"L D D D L J H H S D D D D T L L J H L L D m m D m m A D D K D D H D H L L D K D D E Q / { E Q L D D "
};
