/* XPM */
static char *result[] = {
/* columns rows colors chars-per-pixel */
"50 50 67 1 ",
"  c #1C1A15",
". c #1F1D18",
"X c #221E1A",
"o c #25221D",
"O c #29241E",
"+ c #272621",
"@ c #2B2622",
"# c #2D2925",
"$ c #322C26",
"% c #332E29",
"& c #36312C",
"* c #3A332E",
"= c #373530",
"- c #3B3631",
"; c #3E3934",
": c #3E3B38",
"> c #423B36",
", c #483F37",
"< c #443E39",
"1 c #483F39",
"2 c #46413B",
"3 c #4B433D",
"4 c #50463E",
"5 c #4D4641",
"6 c #4E4943",
"7 c #504742",
"8 c #524B45",
"9 c #584E46",
"0 c #544E49",
"q c #584F49",
"w c #595147",
"e c #56514B",
"r c #5B534D",
"t c #5F584F",
"y c #565551",
"u c #5C5651",
"i c #5E5953",
"p c #5E5B59",
"a c #61574E",
"s c #615750",
"d c #635B54",
"f c #695F56",
"g c #645E59",
"h c #695F58",
"j c #6A6057",
"k c #66615B",
"l c #6B635C",
"z c #71675E",
"x c #70685E",
"c c #666564",
"v c #6A6662",
"b c #6C6964",
"n c #6D6C6B",
"m c #706760",
"M c #746C65",
"N c #786E65",
"B c #716E6C",
"V c #72706F",
"C c #7A726C",
"Z c #737373",
"A c #7B7773",
"S c #7A7877",
"D c #7A7978",
"F c #847B74",
"G c #857F7B",
"H c #85807B",
"J c #89817B",
/* pixels */
"ZZZZZZZZZZZZZZZZZZZZZZZZZZZZZZZZZZZZZZZZZZZZZZZZZZ",
"ZZZZZZZZZZZZZZZZZZZZZZZZZZZZZZZZZZZZZZZZZZZZZZZZZZ",
"ZZZZZZZZZSSSDSZSAAAZSZAZZZCCZBVVVnnnnnbbnZZZZZZZZZ",
"ZZZZZZZZZFFCFMACNBvMlMbgmfkjsduiirt9ee0e6ZZZZZZZZZ",
"ZZZZZZZZZHklj0l6gu0d8d8ea3d7a98s4t60e3p40VZZZZZZZZ",
"ZZZZZZZZZJFxX..XXXXX.XoXooooXOoOooooootpyVZZZZZZZZ",
"ZZZZZZZZZJjd%e0dd8uuy6iu08di3eue:ee28<d9yVZZZZZZZZ",
"ZZZZZZZZZJFM*kdMmrlMgevvdiml0klk4jk6u3gkiVZZZZZZZZ",
"SZZZZZZZZHBk*kdNMtlmjevvaaMz0jzl6lk8t3iiuZZZZZZZZZ",
"ZZZZZZZZZHmm*kdMMilkr6ii99ss3rdk6xk8d3gepZZZZZZZZZ",
"ZZZZZZZZZJFM*ksNNrgikgkgjlkgflwd4ll9i3pgdZZZZZZZZZ",
"ZZZZZZSZZGik*jdMMrggpepyipip0cee4ll7d3d8eVZZZZZZZZ",
"ZZZZZZZZZGSB*fiMMriticZBVZnZbc6e5vl8d3dgpZZZZZZZZZ",
"ZZZZZZZZZHMj*dtMbuirgcBBMZnZbb6e7hl8d5ruyVZZZZZZZZ",
"ZZZZZZZZZAkk*trxbwitccVVVZnZvve03hh8u5dyiZZZZZZZZZ",
"ZZZZZZZZZACk&awzveueicVVnZnZvc504hg5u5uudVZZZZZZZZ",
"ZZZZZZZZZCds%awzl0rrpcVBnZbZcv784ff7r2u0dVZZZZZZZZ",
"ZZZZZZZZZCNh%awlz0rrgcVBBZnZcc883ff4u3iidZZZZZZZZZ",
"ZZZZZZZZZMhu%aqvc0eeycVnnZbZck783fd8i2e0yVZZZZZZZZ",
"ZZZZZZZZZMfs%90ll600pcVnnZbZkk573fd7u2iypVZZZZZZZZ",
"ZZZZZZZZZvvs$08dg700ggncvBlngk853ss3e<eepZZZZZZZZZ",
"ZZZZZZZZZv0e%86dd705650088q95e251si5e<y0yVZZZZZZZZ",
"ZZZZZZZZZvvg$87uu101%#%%%%*&%%-01uw10>eedZZZZZZZZZ",
"ZZZZZZZZZde0$51eq18q65e071rq78yy>08<3;55yVZZZZZZZZ",
"ZZZZZZZZZi8q@3>><-0e620e71qr08q7*;>%-%2<yVZZZZZZZZ",
"ZZZZZZZZZgga#1;r0=ere0ypqqds8ae83009e0ee6ZZZZZZZZZ",
"SZZZZZZZn015%>;ue&5386068586355>8dMMMllu5cZZZZZZZZ",
"ZZZZZZZZc+@@@#$dr+&&-=-;>>;>---%3lMMMMM8:pZZZZZZZZ",
"ZZZZZZZZV885.Xoee o+O+##O$$*@%%@1yhhgpdg6VZZZZZZZZ",
"ZZZZZZZZZpqi@*%&&o-<;=2:>233;13:-->*>-:50VZZZZZZZS",
"SZZZZZZZZidd$52<@@0u04itw9gs6idi:-=%%$58pZZZZZZZZZ",
"ZZZZZZZZZy6e%65r<*eu04iiewgg8ikg582-1*uypVZZZZZZZZ",
"ZZZZZZZZZpgg%53rr10u85ud0wgl6gkg3di3q1iuiZZZZZZZZZ",
"ZZZZZZZZZy0e%53iy5ei85is0wgg6gkp3dd5y3u0iZZZZZZZZZ",
"ZZZZZZZZZ05e%32ru<qu86yu0rgg7dkd3sd3u1dudZZZZZZZZZ",
"ZZZZZZZZZ0yy$32ru1eu86iu9egg3dld3aa3y2uuiZZZZZZZZZ",
"ZZZZZZZZZ8,8$3,we<0s83uu8efd3sfs3aa3w2yeiZZZZZZZZZ",
"ZZZZZZZZZ38r$3,au<0y53us89ff3djs3dd3r2iuiZZZZZZZZZ",
"ZZZZZZZZZ274#3>ru>0053qr49fs3asa2aa4u2eeuVZZZZZZZZ",
"ZZZZZZZZZ2,9#,>w0:8e53ru44aa,asa2aa3r<iuyVZZZZZZZZ",
"ZZZZZZZZZ>68#>;80;50510y38aa2eir<rr<q<r0uVZZZZZZZZ",
"ZZZZZZSZZ::6#:;88-501<0014ar<eur>ar<0<y0yZZZZZZZZZ",
"ZZZZZZZZZ=:6#;-55=161>861399;7ee>q0>8>yqyVZZZZZZZZ",
"ZZZZZZZZZ=<5+-%<1%:5:-51>>44*386*85-5*880VZZZZZZZZ",
"ZZZZZZZZZ=&3O$#$%#%%%#&=$%**#*=*$;*$-$0eyZZZZZZZZZ",
"ZZZZZZZZZ-265778688600069899ee0w0w0rqyd0yZZZZZZZZZ",
"ZZZZZZZZZ::-;;><::::<22:66806600ew0r0uuiiVZZZZZZZZ",
"ZZZZZZZZZcccccccnccccnncnbnbnnnVnnnnnnnnnZZZZZZZSZ",
"ZZZZZZZZZZZZZZDZZZZZZZZZZZZZZZZZZZZZZZZZZZZZZZZZZZ",
"ZZZZZZZZZZZZZZZZZZZZZZZZZZZZZZZZZZZZZZZZZZZZZZZZZZ"
};
