/* XPM */
static char *d5473c3688394588b136040c6561a302NqecJrbOYpvE2q1E[] = {
/* columns rows colors chars-per-pixel */
"50 50 199 2 ",
"   c #1E1B17",
".  c #1E1D1B",
"X  c #161611",
"o  c #221E1B",
"O  c #281E15",
"+  c #1F221E",
"@  c #23211E",
"#  c #2D241B",
"$  c #31251B",
"%  c #34291C",
"&  c #382818",
"*  c #1E2223",
"=  c #242423",
"-  c #2A2622",
";  c #2C2925",
":  c #2B2B2B",
">  c #262829",
",  c #332C24",
"<  c #3B2F22",
"1  c #312E2A",
"2  c #3C3024",
"3  c #34312D",
"4  c #3B352E",
"5  c #3A342B",
"6  c #2F3132",
"7  c #343434",
"8  c #3A3733",
"9  c #3B3834",
"0  c #343739",
"q  c #393738",
"w  c #36393A",
"e  c #3A3A3A",
"r  c #363835",
"t  c #442E1A",
"y  c #4A331D",
"u  c #54391E",
"i  c #433323",
"p  c #47382A",
"a  c #543921",
"s  c #553B27",
"d  c #433C33",
"f  c #443C34",
"g  c #603F21",
"h  c #4A4136",
"j  c #40403F",
"k  c #4C443C",
"l  c #4E483E",
"z  c #54493C",
"x  c #6B4A2C",
"c  c #664628",
"v  c #764C23",
"b  c #7A4E29",
"n  c #7D532B",
"m  c #70563C",
"M  c #3D4244",
"N  c #3A4A55",
"B  c #444444",
"V  c #484847",
"C  c #454748",
"Z  c #45494B",
"A  c #4A4B4C",
"S  c #554C43",
"D  c #594F45",
"F  c #504E4B",
"G  c #5C544B",
"H  c #5A5247",
"J  c #4B4E51",
"K  c #495156",
"L  c #515355",
"P  c #525659",
"I  c #55595C",
"U  c #5B5D5E",
"Y  c #65594C",
"T  c #64584B",
"R  c #635A52",
"E  c #6A5F52",
"W  c #6D615A",
"Q  c #6C6155",
"!  c #776B5F",
"~  c #7B6D5C",
"^  c #726558",
"/  c #5A5E61",
"(  c #405864",
")  c #5D6164",
"_  c #5F6469",
"`  c #616466",
"'  c #64666A",
"]  c #65696D",
"[  c #6A6C6E",
"{  c #6D6B65",
"}  c #766A60",
"|  c #7B6C62",
" . c #6F716E",
".. c #7D7064",
"X. c #7F7269",
"o. c #6D6E71",
"O. c #676D70",
"+. c #6F7072",
"@. c #727375",
"#. c #757678",
"$. c #77787A",
"%. c #7A7B7D",
"&. c #8B592B",
"*. c #975D29",
"=. c #875A32",
"-. c #94612E",
";. c #9A6431",
":. c #A4652C",
">. c #AA6A2E",
",. c #A7692E",
"<. c #A96C33",
"1. c #AE7036",
"2. c #B47132",
"3. c #BF7633",
"4. c #C6772E",
"5. c #C47631",
"6. c #C67B34",
"7. c #82735E",
"8. c #B87D47",
"9. c #837463",
"0. c #83756B",
"q. c #8B7B6C",
"w. c #877867",
"e. c #8C7B72",
"r. c #957E66",
"t. c #DB852F",
"y. c #D48133",
"u. c #DD8432",
"i. c #93826C",
"p. c #948472",
"a. c #9B8974",
"s. c #9C8A76",
"d. c #8A8377",
"f. c #A28E78",
"g. c #A4927C",
"h. c #AB957D",
"j. c #D08749",
"k. c #7D7E80",
"l. c #6A7A80",
"z. c #7F8082",
"x. c #828385",
"c. c #868789",
"v. c #87888A",
"b. c #8A8B8D",
"n. c #8E8F91",
"m. c #8F9092",
"M. c #929395",
"N. c #969799",
"B. c #97989A",
"V. c #9A9B9D",
"C. c #9C9790",
"Z. c #928E84",
"A. c #AA9681",
"S. c #AE9A82",
"D. c #A89888",
"F. c #B39D86",
"G. c #B39E89",
"H. c #B6A18C",
"J. c #BCA58D",
"K. c #BCA791",
"L. c #A5A190",
"P. c #9E9FA1",
"I. c #9D9EA0",
"U. c #949EA0",
"Y. c #9FA0A2",
"T. c #9FA0A2",
"R. c #A2A3A5",
"E. c #A2A3A5",
"W. c #A6A7A9",
"Q. c #A9ABAD",
"!. c #A9A8A7",
"~. c #AFB0B2",
"^. c #B7B5AE",
"/. c #C2AB8F",
"(. c #C0A68F",
"). c #C4AC93",
"_. c #CDB59A",
"`. c #C8B196",
"'. c #D3B99C",
"]. c #D6BEA1",
"[. c #C4BDB1",
"{. c #DCC3A4",
"}. c #D1C7B9",
"|. c #E2C5A5",
" X c #E6CAAA",
".X c #EBCDAB",
"XX c #E4C8A8",
"oX c #F0CFAF",
"OX c #EED0AE",
"+X c #F0D0AD",
"@X c #EDCFB0",
"#X c #E5CDB2",
"$X c #EDD0B1",
"%X c #F1D8B8",
"&X c #F4DEC6",
"*X c #E9E7DC",
"=X c #F8E6CF",
"-X c #F2F1E4",
";X c #D4D4C9",
/* pixels */
"M.m.P.W.E.N.m.b.M.N.N.B.W.W.W.Q.W.Q.W.W.P.b.b.n.b.c.b.c.z.c.%.%.c.k.z.%.x.x.%.#.k.c.v.b.c.z.$.%.z.v.",
"v.M.E.W.E.T.M.b.n.B.E.E.R.W.W.W.~.~.W.W.B.b.b.x.k.k.x.x.x.c.x.x.k.$.%.k.%.k.%.x.z.%.%.x.c.c.k.z.x.c.",
"M.N.V.W.R.V.B.N.N.N.V.E.R.Q.E.Q.Q.Q.V.b.+.I C e 0 0 0 M Z / ' $.k.%.$.x.k.c.c.k.%.%.k.x.c.v.c.c.b.b.",
"N.N.V.W.T.P.P.M.B.B.B.P.E.E.W.E.T.@.B : > : : q q q q e q q 7 0 A [ %.c.x.x.x.x.z.k.$.z.x.v.c.c.n.N.",
"N.B.P.P.V.V.V.V.n.V.T.P.V.E.N.O.M > : 3 q q q e B B q q B Z B F Z q w [ %.c.%.%.$.#.%.$.x.c.v.v.n.n.",
"B.N.P.E.T.E.V.V.b.N.V.V.E.V.o.* : 0 : = : q B q q B B 7 e V e B L U B > ' %.$.%.z.%.%.%.x.v.b.b.b.b.",
"V.B.V.P.P.P.V.V.M.M.M.V.R.) = 7 q q q : : : : 7 e q e B : B B q B V U ) = I %.%.%.x.k.k.%.%.c.c.M.N.",
"V.V.V.B.B.B.T.M.n.m.M.m.] @ q q q 7 q q : 0 B e : : : 7 B : B q e B V  .] : P k.%.%.%.%.%.k.x.b.b.M.",
"n.V.T.V.n.M.n.B.M.M.b.@.= 7 q q q q q : 7 = q B B q 7 = : 7 q q q B B A U ] 6 +.%.%.$.%.x.c.x.v.b.b.",
"n.M.N.V.N.m.b.n.M.M.n.Z : q q q q q q q e q q V B B B B 7 q : q q B e V V / B A %.$.%.z.c.x.c.b.m.x.",
"v.c.n.N.M.m.b.M.M.N.%.: q q q q q q q q B B B e j B B B B B q q B e B V B V I 7 @.z.k.c.c.c.c.v.b.b.",
"x.x.b.b.n.n.M.b.M.M.J : q 7 q : 7 q q e B : ; 4 3 > : q B B j q V B q : : 7 V 0 / %.%.x.x.x.b.b.v.b.",
"k.k.x.b.M.b.M.M.N.m.w 7 q 7 q 7 q q q e 7 3 g.F.h.p.E , o : B q e = o H Q d = q C %.k.c.c.%.%.x.b.v.",
"z.b.M.n.n.N.M.V.V.M.0 = 7 : q q q q q 7 @ F. X.X.X|.'.).q.h o = - ~ `..X{.K.z - e #.%.x.%.x.z.x.b.M.",
"c.k.b.m.n.b.b.M.m.x.6 3 @ = : q q q q @ ~ .XOXOXOXOXOXOX|.'.g.7.).OXOX%X=X&XG.- e %.k.x.%.$.x.x.v.b.",
"x.b.N.M.M.b.M.N.M.k.> R ^ S 3 o . = . ; {.OXOXOXOXOXOXOXOXOXOXOXOXOXOX%X=X=X#Xl Z $.%.%.%.k.k.b.b.c.",
"b.M.V.N.N.N.M.M.M.%.> R } } W G S k k | OXOXOXOXOXOXOXOXOXOXOXOXOXOXOXOX&X%X$XD Z %.%.z.%.%.x.x.c.c.",
"N.B.V.P.N.M.N.M.B.%.: R } } | ! } } } f.OXOXOXOXOXOXOXOXOXOXOXOXOXOXOX+XOXOXOXS J k.x.v.z.k.c.x.x.x.",
"V.V.N.V.N.V.N.n.N.%.> R } | | } } } } h.OXOX+XOX@X@X$XOXOXOXOXOXOXOXOXOXOX+X Xk P k.k.c.c.c.z.b.b.n.",
"B.M.V.T.V.T.V.M.b.%.> G } } ! } } } 0.J.i.`.$XOXOXOXOXOXOXOXOXOXOXOXOXOXoX@XH.q / $.z.z.z.%.b.v.b.b.",
"T.N.V.T.N.M.N.N.N.x.: o - R } } } | A.K., o h 7.J..XOXOXOXOX+XOXOXOXOX].w.d o - [ %.k.x.c.v.v.b.v.b.",
"M.M.M.N.V.B.N.M.v.' 3 E ! l | } } a.J.g.  r q : = , Y a.S.S.OX_.f.i.D o : 0 . : o.#.k.k.k.k.x.x.v.M.",
"v.M.M.V.B.M.b.m.c.L ; 3 - 9.p.} ! g.J./.4 q = @ : 7 6 : = o H.z = : 7 7 > .   e %.%.#.$.z.k.c.b.n.N.",
"x.v.M.N.B.M.V.n.b.P ; , - f H...} A.(.|.D C.[.Z.L = . @ : - '.Y = = @ > Z - . J x.k.x.k.x.k.c.v.n.M.",
"k.b.n.M.m.v.m.b.v.) ; ; k l A.p.| A./. Xw.{ -X*X}.( N %.= i.$X`.4 { !.l.K o @ U %.x.k.x.k.k.k.c.n.m.",
"x.v.b.m.n.c.M.b.x.o.: f R ..w.A.9.S./..X{.d d.;X*XU.n.{ , XXOX.Xw.F ^.V.: } q ` %.z.x.%.%.k.k.c.c.n.",
"c.v.b.n.b.b.N.b.x.%.C d z E w.J.f.H./..X+X_.d ; f B : o 9.OXOXOX`., @ # q.}.8 ) $.$.%.x.%.%.x.c.v.v.",
"%.z.c.k.v.c.v.x.%.%.o.: i.i.F.J.J.J.J.h.{.r..X/.g.q.H Q .XOXOXOXOXF.Y ~ _.}.7 ] $.%.#.$.%.k.k.%.z.x.",
"x.c.v.x.x.c.b.b.z.%.#./ = p.J.a.J.J.J.K.S ~ OXOX'.s.).].).H.G.H.).|.OXOX%X[.: ' $.%.$.%.%.$.%.$.@.%.",
"z.v.b.x.b.c.x.k.$.$.%.%.' B e @ Q H.J.J.9.J.|.+X XH.p.q.X.S d 4 S 0.g.XX&X} 6 $.$.#.%.#.@.@.@.z.%.x.",
"v.b.n.x.x.x.b.x.%.k.$.#.%.$.@.M + z g.J.J..X+X|.g.e.e.} , k W 0.0.0.e.D.L.  L %.$.@.o.o.@.#.%.$.k.v.",
"v.x.c.x.x.x.c.k.#.#.$.%.%.#.$.#.) 7 1 H i./.{.f.e.e.e.^ ..e.e.e.e.e.0.G : B +.%.$.#.+.[ @.@.$.x.x.c.",
"b.c.b.x.x.x.v.%.%.#.$.%.#.%.%.k.%.%.L . o 4 S R ^ | 0.0.q.q.0.| E k 1 : I #.#.$.$.$.#.#.@.$.x.x.c.v.",
"n.c.c.c.x.x.x.%.%.$.$.$.$.#.%.$.%.%.A @ o % t # o = , 1 3 1 1 - . 7 I @.+.@.@.@.@.@.$.%.%.%.%.x.z.x.",
"c.c.c.b.c.z.x.z.$.#.#.%.#.$.%.%.%.] , b n $ <.*.t @ l k f 9   p o B k.x.%.$.@.#.#.#.$.$.k.%.v.x.c.%.",
"c.x.c.x.x.c.x.c.%.%.%.%.%.#.$.%.$.e n 5.u.t -.3.4.g % Y w.h u j.i = ' c.x.k.$.%.$.@.@.@.#.%.%.x.z.c.",
"c.v.x.x.x.x.x.%.%.$.@.#.#.@.#.#.] < b y.u.y &.4.u.t.5.*.v *.t.j.c & q x.k.x.k.$.#.#.[ o.@.@.%.z.c.x.",
"%.x.#.k.c.c.x.z.#.#.#.#.@.%.$.#.Z c b y.u.y a =.,.1.2.2.1.<.-.x f a & k.%.#.%.$.#.%.#.[ [ #.%.x.c.$.",
"x.k.k.k.x.c.x.%.%.%.#.#.@.@.$.o.7 &.;.>.*.t % < 2 < < 2 < 2 # p z y s I %.%.k.k.%.%.%.o.$.k.x.x.k.%.",
"%.k.k.%.v.x.x.x.#.@.#.#.#.#.#.L = < u c &.$ &.2.,.1.>.>.1.n a 5.8.# 1 B $.#.%.x.%.#.%.$.%.%.%.%.%.#.",
"%.#.%.%.k.%.%.x.$.%.#.@.@.#.$.A S s.~ T z ; c >.2.5.5.5.:.a ;.-.m 4 w.7 %.%.%.x.%.#.k.%.%.$.%.$.$.$.",
"%.#.$.#.%.x.x.x.#.#.#.@.@.#.%.B T J.J.`._.9   # i p s s < 5 < , f - - 0 k.@.x.x.k.%.$.$.$.@.%.%.$.%.",
"@.%.k.%.%.x.#.z.@.$.$.#.@.#.#./ 8 f.J.|.+Xd n v $ 2 x x b n n ,.8.< : P z.c.x.%.z.k.+.@.%.%.$.%.k.k.",
"+.#.k.x.x.z.x.%.$.$.@.o.@.#.$.#.I 3 E g.a.O 1.y.6.&.v :.u.u.3.>.x : Z o.%.@.@.#.k.k.%.#.@.#.%.%.k.%.",
"@.%.%.k.x.z.%.k.#.o.$.#.@.$.%.k.%.@.J 0 o # O & y a a a t & O % : o.k.@.$.@.%.$.#.@.@.#.$.$.$.%.#.%.",
"k.%.k.%.x.#.%.%.#.#.@.+.[ @.%.$.@.#.#.] . % 2 < O @ B . X o # & : ' #.[ #.@.#.@.@.%.#.#.#.#.%.#.@.#.",
"%.$.%.k.k.#.#.%.o.#.#.@.#.#.%.%.$.$.#._ > l T ^ ^ 7 ' > l 9.a.p.8 ` @.o.+.@.@.@.$.%.%.#.$.#.#.#.#.#.",
"k.#.$.%.$.@.#.#.@.@.@.@.#.$.%.#.#.$.#.) : 8 D E H : ' 0 8 l S l 7 U o.$.o.@.@.@.$.@.#.$.z.k.@.@.@.o.",
"%.$.%.%.#.%.@.@.#.@.o.@.@.$.%.@.@.%.#.o.U A B B A P @.' U J L L ) o.[ z.#.$.@.@.%.$.%.v.n.c.@.#.o.@.",
"%.@.@.#.%.$.#.#.+.@.@.@.@.k.%.%.$.#.%.%.@.[ [ #.[ [ o.@.@.$.@.@.#.@.#.%.%.@.$.@.@.x.c.v.n.x.c.%.@.#."
};
