/* XPM */
static char *result[] = {
/* columns rows colors chars-per-pixel */
"50 50 188 2 ",
"   c #1C1A16",
".  c #1D1C1B",
"X  c #191712",
"o  c #231C14",
"O  c #2C1F16",
"+  c #221E1A",
"@  c #292117",
"#  c #24211D",
"$  c #2C251D",
"%  c #272015",
"&  c #3C2915",
"*  c #31261C",
"=  c #332A1E",
"-  c #3B2B1C",
";  c #392719",
":  c #1F1F20",
">  c #1F2121",
",  c #242424",
"<  c #2A2623",
"1  c #252927",
"2  c #2C2A25",
"3  c #242729",
"4  c #26292A",
"5  c #2B2C2B",
"6  c #342C24",
"7  c #3B2E22",
"8  c #322F2B",
"9  c #2E302E",
"0  c #363027",
"q  c #34322D",
"w  c #3D362D",
"e  c #3E342A",
"r  c #2E3234",
"t  c #343433",
"y  c #3B3630",
"u  c #3C3935",
"i  c #353739",
"p  c #363A3B",
"a  c #3A3A3A",
"s  c #442E1D",
"d  c #46321F",
"f  c #49321D",
"g  c #57391D",
"h  c #623E1E",
"j  c #4C3622",
"k  c #533922",
"l  c #433B32",
"z  c #423F3A",
"x  c #5E422A",
"c  c #4B433B",
"v  c #46413B",
"b  c #51463C",
"n  c #554B3F",
"m  c #594B3A",
"M  c #6B4726",
"N  c #744B29",
"B  c #7F5025",
"V  c #68513B",
"C  c #2D414D",
"Z  c #3D4142",
"A  c #444445",
"S  c #434649",
"D  c #46494A",
"F  c #494B4C",
"G  c #484647",
"H  c #544B44",
"J  c #564C48",
"K  c #5D5145",
"L  c #5E554A",
"P  c #55524D",
"I  c #4A4E50",
"U  c #464D50",
"Y  c #4E5254",
"T  c #45525B",
"R  c #525457",
"E  c #545659",
"W  c #55585A",
"Q  c #5D5D5C",
"!  c #5B5752",
"~  c #615445",
"^  c #62574A",
"/  c #675C4D",
"(  c #6C5E4F",
")  c #635B52",
"_  c #695E52",
"`  c #625750",
"'  c #6B6055",
"]  c #6E645B",
"[  c #736555",
"{  c #75695D",
"}  c #7D6E5C",
"|  c #73665B",
" . c #5E5F62",
".. c #5F6263",
"X. c #596D77",
"o. c #616465",
"O. c #6D6A65",
"+. c #646668",
"@. c #67696B",
"#. c #6B6D6E",
"$. c #766960",
"%. c #7A6C61",
"&. c #736760",
"*. c #7E7165",
"=. c #6E6F70",
"-. c #6F7071",
";. c #737373",
":. c #84572D",
">. c #8E5D2E",
",. c #875524",
"<. c #945E2C",
"1. c #9A5F2A",
"2. c #935F32",
"3. c #9B622C",
"4. c #956130",
"5. c #9C6431",
"6. c #A2652C",
"7. c #A96A2D",
"8. c #B06D2F",
"9. c #B6712F",
"0. c #A76A33",
"q. c #BE7531",
"w. c #C7792F",
"e. c #C37934",
"r. c #CB7B32",
"t. c #C87C3A",
"y. c #82715E",
"u. c #886545",
"i. c #A8744B",
"p. c #867565",
"a. c #84746A",
"s. c #86796B",
"d. c #8C7C6C",
"f. c #867864",
"g. c #847C74",
"h. c #8C7B72",
"j. c #917F72",
"k. c #DE842F",
"l. c #CD8139",
"z. c #DD8431",
"x. c #96816A",
"c. c #948472",
"v. c #9B8974",
"b. c #9C8C7A",
"n. c #978A78",
"m. c #9F907C",
"M. c #8C847A",
"N. c #AA967E",
"B. c #A4927C",
"V. c #C88A53",
"C. c #E18A41",
"Z. c #E0934B",
"A. c #8A9494",
"S. c #A99581",
"D. c #AD9983",
"F. c #A79B8B",
"G. c #B49D86",
"H. c #B39E88",
"J. c #B6A28C",
"K. c #BCA58D",
"L. c #B5A385",
"P. c #A4ABAB",
"I. c #C1AA8F",
"U. c #C4AC92",
"Y. c #CBB196",
"T. c #CCB498",
"R. c #D1B69B",
"E. c #D5BB9D",
"W. c #DABFA1",
"Q. c #D6BFA2",
"!. c #DCC1A2",
"~. c #C3C2B6",
"^. c #E3C7A5",
"/. c #E3C9AC",
"(. c #ECCEAD",
"). c #F0CFAC",
"_. c #EED0AE",
"`. c #F0D0AD",
"'. c #EECFB0",
"]. c #F0CFB0",
"[. c #EFD2B1",
"{. c #F2DABB",
"}. c #CED5CF",
"|. c #DBD6CD",
" X c #E4D3C2",
".X c #F3DDC1",
"XX c #F2E6D4",
"oX c #F8F6EA",
/* pixels */
";.;.;.;.;.;.;.;.;.;.;.;.;.;.;.;.;.;.;.;.;.;.;.;.;.;.;.;.;.;.;.;.;.;.;.;.;.;.;.;.;.;.;.;.;.;.;.;.;.;.",
";.;.;.;.;.;.;.;.;.;.;.;.;.;.;.;.;.;.;.;.;.;.;.;.;.;.;.;.;.;.;.;.;.;.;.;.;.;.;.;.;.;.;.;.;.;.;.;.;.;.",
";.;.;.;.;.;.;.;.;.;.;.;.;.;.;.;.;.;.;.;.;.;.;.;.;.;.;.;.;.;.;.;.;.;.;.;.;.;.;.;.;.;.;.;.;.;.;.;.;.;.",
";.;.;.;.;.;.;.;.;.;.;.;.;.;.;.;.;.;.;.@.Y S a i p Z S Y #.;.;.;.;.;.;.;.;.;.;.;.;.;.;.;.;.;.;.;.;.;.",
";.;.;.;.;.;.;.;.;.;.;.;.;.;.;.;.=.I 4 . , 5 q i t i i t 4 4 I =.;.;.;.;.;.;.;.;.;.;.;.;.;.;.;.;.;.;.",
";.;.;.;.;.;.;.;.;.;.;.;.;.;.-.F > 3 t a i i A G z q A A Z ! S , Z -.;.;.;.;.;.;.;.;.;.;.;.;.;.;.;.;.",
";.;.;.;.;.;.;.;.;.;.;.;.;.#.r , i t . , 5 A a i A A 5 A G a G o.D 3 ..;.;.;.;.;.;.;.;.;.;.;.;.;.;.;.",
";.;.;.;.;.;.;.;.;.;.;.;.#.r 2 i i u t 4 t 5 t a t Z a 9 A 9 G A .. .4 ..;.;.;.;.;.;.;.;.;.;.;.;.;.;.",
";.;.;.;.;.;.;.;.;.;.;.;.a 4 i i q t t t t A A q 5 , u 5 a i a G F =.+.2 +.;.;.;.;.;.;.;.;.;.;.;.;.;.",
";.;.;.;.;.;.;.;.;.;.;.Y < i u a i i t 9 4 i A A a i , i 4 a r v A G E E p ;.;.;.;.;.;.;.;.;.;.;.;.;.",
";.;.;.;.;.;.;.;.;.;.=.4 t i i i i i i A G v G G G A A A t a a a S A D ..t  .;.;.;.;.;.;.;.;.;.;.;.;.",
";.;.;.;.;.;.;.;.;.;.R , t i u q a u a G Z 5 5 5 i v G A A i A A S z v G D A ;.;.;.;.;.;.;.;.;.;.;.;.",
";.;.;.;.;.;.;.;.;.;.i r t i i 8 i a a a # L *./ w # 1 y G t A i < < < , D t =.;.;.;.;.;.;.;.;.;.;.;.",
";.;.;.;.;.;.;.;.;.;.r , t 5 i i i u i < f.!.^.^.R.G.p.l + 8 # c N.E.U.[ < 1 +.;.;.;.;.;.;.;.;.;.;.;.",
";.;.;.;.;.;.;.;.;.;., < + 4 i i i i 2 n /._._._._._.^.Y.v.b v./.).{.XX!.n . o.;.;.;.;.;.;.;.;.;.;.;.",
";.;.;.;.;.;.;.;.;.=.. ! L t + , 1 1 , K._._._._._._.(._.(.(.`.`.].{.XX.Xc., #.;.;.;.;.;.;.;.;.;.;.;.",
";.;.;.;.;.;.;.;.;.@.. ] $.$.] ) H c _ (._._._.[.(._._._._.[.(.`._._..X[.G.4 #.;.;.;.;.;.;.;.;.;.;.;.",
";.;.;.;.;.;.;.;.;.@.  &.$.$.$.$.{ { s.'._._._._.(._.(.[._._._._._.`.[.`.G.4 =.;.;.;.;.;.;.;.;.;.;.;.",
";.;.;.;.;.;.;.;.;.@.  ] $.$.$.$.$.$.d.(.[.`._.'.[._._._._._.[.(._._.[._.b.9 -.;.;.;.;.;.;.;.;.;.;.;.",
";.;.;.;.;.;.;.;.;.=.. c ) $.$.$.$.%.H.} f.K.^._.(.`._._.[._._._._._.W.v.L i ;.;.;.;.;.;.;.;.;.;.;.;.",
";.;.;.;.;.;.;.;.;.=.. P l L $.$.%.D.J.6 5 + l } U._.].].].(._.`.T.[ 0 .   D ;.;.;.;.;.;.;.;.;.;.;.;.",
";.;.;.;.;.;.;.;.;.E q 8 ^ [ %.$.p.K.N.O , 9 t q , 0 ~ c G.N.c c # t a 2   W ;.;.;.;.;.;.;.;.;.;.;.;.",
";.;.;.;.;.;.;.;.;.F 6 y < s.b.{ d.K.Y.^ O.#.a . < 4 5 , [ ~ 4 5 2 > , . . @.;.;.;.;.;.;.;.;.;.;.;.;.",
";.;.;.;.;.;.;.;.;.R 8 . l L J.%.j.K.E.p.g.XX|.A.C Z 8 < E.U.+ z ;.T T . 5 -.;.;.;.;.;.;.;.;.;.;.;.;.",
";.;.;.;.;.;.;.;.;.+.. v { L G.d.x.I.!.R.8 ~.oX}.X.P.z d._._.y.Q oXA.> P r ;.;.;.;.;.;.;.;.;.;.;.;.;.",
";.;.;.;.;.;.;.;.;.;.p c c / B.B.N.K.!.(.K.0 z O.Q 2 $ W._._.W.% 5 * c.M.p ;.;.;.;.;.;.;.;.;.;.;.;.;.",
";.;.;.;.;.;.;.;.;.;.+.< c.x.L.K.K.K.L.E.x._.L.x.[ n K._._.`.(.L.L c./.s.Z ;.;.;.;.;.;.;.;.;.;.;.;.;.",
";.;.;.;.;.;.;.;.;.;.;.W u S.S.S.K.K.K.K ( _.`.I.v.R.Y.K.J.J.U.W.[._..X! S ;.;.;.;.;.;.;.;.;.;.;.;.;.",
";.;.;.;.;.;.;.;.;.;.;.;.Q a 5 w B.K.K.f.U.!.`.W.S.h.g.` l w H %.S.(. X# W ;.;.;.;.;.;.;.;.;.;.;.;.;.",
";.;.;.;.;.;.;.;.;.;.;.;.;.;.#.a < _ S.K.^._.T.c.h.a.c J | a.a.s.c.F.! t =.;.;.;.;.;.;.;.;.;.;.;.;.;.",
";.;.;.;.;.;.;.;.;.;.;.;.;.;.;.-.E r 2 L x.U.j.d.h.a.a.h.h.h.h.h.) 5 t #.;.;.;.;.;.;.;.;.;.;.;.;.;.;.",
";.;.;.;.;.;.;.;.;.;.;.;.;.;.;.;.;.#.4   + < z J ] %.a.*.a._ c 5 , F -.;.;.;.;.;.;.;.;.;.;.;.;.;.;.;.",
";.;.;.;.;.;.;.;.;.;.;.;.;.;.;.;.;.F * & = N s     + + + . .   i #.;.;.;.;.;.;.;.;.;.;.;.;.;.;.;.;.;.",
";.;.;.;.;.;.;.;.;.;.;.;.;.;.;.;.@.= 7.l.& 5.q.,.< _ S.v.@ i.$ , =.;.;.;.;.;.;.;.;.;.;.;.;.;.;.;.;.;.",
";.;.;.;.;.;.;.;.;.;.;.;.;.;.;.;.Z k w.k.g >.w.k.7.g - - >.C.x * F ;.;.;.;.;.;.;.;.;.;.;.;.;.;.;.;.;.",
";.;.;.;.;.;.;.;.;.;.;.;.;.;.;.=.= N q.k.g M 0.q.e.r.q.q.9.4.V k 5 ;.;.;.;.;.;.;.;.;.;.;.;.;.;.;.;.;.",
";.;.;.;.;.;.;.;.;.;.;.;.;.;.;.I x 0.3.1.f $ * 6 6 7 6 6 6 * m j d ..;.;.;.;.;.;.;.;.;.;.;.;.;.;.;.;.",
";.;.;.;.;.;.;.;.;.;.;.;.;.;.;.i = g M >.; :.3.<.4.3.1.2.s 9.V.o $ I ;.;.;.;.;.;.;.;.;.;.;.;.;.;.;.;.",
";.;.;.;.;.;.;.;.;.;.;.;.;.;.;.5 n.} ~ b 2 M 8.w.w.r.w.h :.6.u.# s.Z ;.;.;.;.;.;.;.;.;.;.;.;.;.;.;.;.",
";.;.;.;.;.;.;.;.;.;.;.;.;.;.;.q D.K.U.E.u o # = 7 e 6 6 6 6 m o . A ;.;.;.;.;.;.;.;.;.;.;.;.;.;.;.;.",
";.;.;.;.;.;.;.;.;.;.;.;.;.;.;.D K J.T.(.l 2.<.; j >.1.6.3.9.Z.% 9 o.;.;.;.;.;.;.;.;.;.;.;.;.;.;.;.;.",
";.;.;.;.;.;.;.;.;.;.;.;.;.;.;.;.D q / _ o >.e.l.6.3.t.l.7.B f p +.;.;.;.;.;.;.;.;.;.;.;.;.;.;.;.;.;.",
";.;.;.;.;.;.;.;.;.;.;.;.;.;.;.;.;.#.Y # 7 ; O o % % o X @ j # ;.;.;.;.;.;.;.;.;.;.;.;.;.;.;.;.;.;.;.",
";.;.;.;.;.;.;.;.;.;.;.;.;.;.;.;.;.;.#.. X o o o a U   # 0 w : -.;.;.;.;.;.;.;.;.;.;.;.;.;.;.;.;.;.;.",
";.;.;.;.;.;.;.;.;.;.;.;.;.;.;.;.;.;.@.2 ' v.U.n.t Y u } J.N.w  .;.;.;.;.;.;.;.;.;.;.;.;.;.;.;.;.;.;.",
";.;.;.;.;.;.;.;.;.;.;.;.;.;.;.;.;.;.-.D a i t i F #.G a a a F -.;.;.;.;.;.;.;.;.;.;.;.;.;.;.;.;.;.;.",
";.;.;.;.;.;.;.;.;.;.;.;.;.;.;.;.;.;.;.;.;.;.;.;.;.;.;.;.;.;.;.;.;.;.;.;.;.;.;.;.;.;.;.;.;.;.;.;.;.;.",
";.;.;.;.;.;.;.;.;.;.;.;.;.;.;.;.;.;.;.;.;.;.;.;.;.;.;.;.;.;.;.;.;.;.;.;.;.;.;.;.;.;.;.;.;.;.;.;.;.;.",
";.;.;.;.;.;.;.;.;.;.;.;.;.;.;.;.;.;.;.;.;.;.;.;.;.;.;.;.;.;.;.;.;.;.;.;.;.;.;.;.;.;.;.;.;.;.;.;.;.;.",
";.;.;.;.;.;.;.;.;.;.;.;.;.;.;.;.;.;.;.;.;.;.;.;.;.;.;.;.;.;.;.;.;.;.;.;.;.;.;.;.;.;.;.;.;.;.;.;.;.;."
};
