/* XPM */
static char *_e223cc6545041e9add95da7f8da4665dRTMXbVZOInr9ZmS[] = {
/* columns rows colors chars-per-pixel */
"50 50 72 1 ",
"  c #929395",
". c #8F9092",
"X c #9E9FA1",
"o c #A6A7A9",
"O c #A2A3A5",
"+ c #949597",
"@ c #8C8D8F",
"# c #909193",
"$ c #969799",
"% c #98999B",
"& c #A4A5A7",
"* c #A5A6A8",
"= c #A8A9AB",
"- c #A9AAAC",
"; c #A7A8AA",
": c #8A8B8D",
"> c #8D8E90",
", c #868789",
"< c #8B8C8E",
"1 c #858688",
"2 c #7F8082",
"3 c #7A7B7D",
"4 c #848587",
"5 c #7E7F81",
"6 c #797A7C",
"7 c #818284",
"8 c #767779",
"9 c #7D7E80",
"0 c #88898B",
"q c #78797B",
"w c #7C7D7F",
"e c #87888A",
"r c #939496",
"t c #A3A4A6",
"y c #9FA0A2",
"u c #A0A1A3",
"i c #AFB0B2",
"p c #97989A",
"a c #898A8C",
"s c #828385",
"d c #838486",
"f c #77787A",
"g c #7B7C7E",
"h c #808183",
"j c #9C9D9F",
"k c #9B9C9E",
"l c #AAABAD",
"z c #A1A2A4",
"x c #ACADAF",
"c c #9A9B9D",
"v c #959698",
"b c #9D9EA0",
"n c #999A9C",
"m c #919294",
"M c #828384",
"N c #8E8F91",
"B c #909192",
"V c #737476",
"C c #868788",
"Z c #747577",
"A c #8A8B8C",
"S c #757678",
"D c #707173",
"F c #727375",
"G c #717274",
"H c #6E6F71",
"J c #6F7072",
"K c #6B6C6E",
"L c #6A6B6D",
"P c #6D6E70",
"I c #6C6D6F",
"U c #878889",
/* pixels */
" .XoO+.@#$+%&*o=o-o;X:@>:,<1213345267768910@12qw2e",
"erO*ty#<>%OOuo;oii*&p@a47s41s,ds5f69g5w72gws,,52h,",
"#$j*ukp$+$kOulz=lxXc >:,s7w7s79h53829449gw574e41:a",
"v$k&yXb#pppbOO*O=ynm>e:sh33w2s72d99d77sM29f2se,,Nv",
"v%bXkjcjNkyXjOn%py m>0@s72w2,24d2g62q,3gq8gfh1e0>N",
"%vbzyznc@$jczjp+$krm:7,a77,dBs24h8g936fg2g66d0<<:@",
"n%nbXXjn#mmnu%crvNa$111ds4eee92975Vhg93w6799gw11#v",
"nkjp%%y#N.mmjv:><@em:>N114C<$42h979d2gw5gw3g35d<a ",
"NcynNm>% #@ mvNa@>> ma.1dha:,1d1hwhq622d36qgd4de<:",
"> vj$.@>m#mr$a:da1ea.NNd5eN#,d1d5663635w6fg2,s1@.d",
"e4>$m.@#mvvjX.a001,,:e77244a,22159g9gw2g52544410@a",
"sha@NNm@r#rp ,4a@0,sah,h2121,hs72w25ghw59w3hhh:a0:",
"59da :m#+  $7041e01he7d9s9e7N247gh@e97q36351,ggd:0",
"2a#>N$mjcrN >1h0:<4d157qgs7>d2hhh29w8976w8w7wh2da#",
"45<.><:r.@v,,es<<:,19gda2h92ds96h5559Zgg695hwq7h0a",
"h<vrr@ $ .mNe:@0>>Nadw9,7qe7a2257977325fffggg59<A,",
"arn+$+#  :e0<4<vv  sdhw2gq27d9qg2223www6q6323wss41",
"v%jb+m$r%>:a4:enk Ne:w6whdd9qg2w59w95hfSq5he25,dss",
"nj$cvn$N$:a:11@+%nN.456f3fdd76h5g93q95w6695,412a<>",
"%mjynyn#@:42s:>v%y$#,36w654hshh3fgw63sg3qq222wae<@",
"y+kyvrv+$N4172abykN<2e5Z359ww59d55g2gg6gwg9s,0eae<",
"rr $kp+r056w374@vk+c>2q35gw6766w9g5wwq66S895597de#",
"e rnpr@.12wg,57#rr #4h7swSqf5w3s395hf6g29gSf29,<N$",
"h0m+p#n>@dg8f357e:.,.36V6Zw,3w597hd564wf7975h540Nr",
"9:Nm.0.ae96fgg9sa0#.496DFqf33395d1557g99gh5h955,>.",
"h0@.>,#adgZq9h9s,a0a7ZS9qfZgSZ,d0:h399wg32d36591,N",
"4e@N:@+<sg2s7qS,4<,253883w8Sg3g4e4,w3w2fqfgd66s100",
"w245e,0d3gg83qw7h1s4966686g2Z3w7e049366wqwSq395w2h",
"h1edd,<:26833qg9577dZwghwfDZww2h:14h233Zf3f33f6qGw",
"20a7a4d9qf6gV3ww2hd29sZSfSfh59,1272w8Zf3f86ZDVV23d",
"e@>dshahw5qSwqVhw3d422hq8FS2Z7s145gG86q6fFHHFSgf50",
"0h4dss45S8fw6Sq6g2q5g73qZ6SSS39956368VS3qZJKDDqhs,",
"<1as7d03g8f6Zg39w2wwh49g66986ff9fVqSFfZffq8SVqhd4e",
"N,117d7w3qqqqSgf6gw2saw6q6ZqSq6qgqw3JVGDFVq363372h",
",4,:4272q8SwSf363g5w21h33fwg69f3f89s6qVZZSff9ged1w",
",d17d4d,w636gZq6fgghe7w3f32g6336fhd179fwqGFVSw3d21",
"1esddshwwfFS8VSS3qdh57SFffGVf9g23fsswh9qS8LHFFw217",
"w7S944s28ZSSF3ffSS8fdGS6f66S6gw8867<gS6q838KLZw7,q",
"s99971h33gZSVDq683qgq3ffSgVS8wq3fs<0w699wgwPf9sh5g",
"g996esdsSDSSZSSGS586w3ZZ96SF65SVfdd3f8wsw83q6ww33S",
"6S339g3df6ZVV8fgVGGS886gFGDg39gSFf8g6wwh385w6q6qqq",
"6Sq8ghsh88SGG8gG66g5856VZVSqDwwqZw3s5Vhs96fqfF66f3",
"D69wwh82VffSD886Sgq38qJJHGf8GSDDFSZs2,s625JV66fw95",
"JS57s27gffDHFSqf88qZZVZ8ZSHFVPVVGPHHwFDS596SDS3393",
"Vwg5h2w9SHfSVf3533ZFwJVSZDZDFSJID89DqV3qZFVZffq6S3",
"965whSgg8ZDJIVwfV8ff8FSGZSFJ8DDJKPVKZFZVFg88883SVZ",
"6f399Z86HZZF883g66ZffJKGJDDHVGJLLFJPJGVFf368fSSS8Z",
"58qgqVSSVGDDZq6Z86VVFGfSJVVVSVJJHIHfPVFGfV8f29FDVP",
"wq3gZ6GFSDHGGqgFV6SJ8ZFGZSqGfFKDIHK2ZqFG6qgUN,GZPD",
"wGGZ6qZSJDDVF563q8g6FILZIIPVDfDDSVSwwDfFVh,0>d4wVZ"
};
