/* XPM */
static char *_014c9ef1efd4331c810e9b0299b03cbIbpcOh1EpsXKs1I1[] = {
/* columns rows colors chars-per-pixel */
"50 50 178 2 ",
"   c #53322A",
".  c #443735",
"X  c #5F3C37",
"o  c #663C34",
"O  c #63403C",
"+  c #69433E",
"@  c #4F4244",
"#  c #5E5456",
"$  c #624540",
"%  c #6F4540",
"&  c #614947",
"*  c #6D4A47",
"=  c #654C4B",
"-  c #7B4741",
";  c #765047",
":  c #70514C",
">  c #7C504A",
",  c #635A5C",
"<  c #6C5D5D",
"1  c #635355",
"2  c #745651",
"3  c #795B55",
"4  c #735C5B",
"5  c #7A595A",
"6  c #71605C",
"7  c #7E625D",
"8  c #6D5F61",
"9  c #705F60",
"0  c #6C6466",
"q  c #6C6769",
"w  c #6B6C6E",
"e  c #746466",
"r  c #7A6562",
"t  c #736769",
"y  c #726B6D",
"u  c #796C6B",
"i  c #6E6F71",
"p  c #736E70",
"a  c #6F7072",
"s  c #727375",
"d  c #7B7274",
"f  c #757678",
"g  c #7B7779",
"h  c #77787A",
"j  c #7A7B7D",
"k  c #91564E",
"l  c #855753",
"z  c #845D56",
"x  c #885B54",
"c  c #85625C",
"v  c #88625C",
"b  c #8F685F",
"n  c #93635C",
"m  c #826661",
"M  c #8C6C66",
"N  c #856C69",
"B  c #846963",
"V  c #916760",
"C  c #926A63",
"Z  c #936D6A",
"A  c #85736F",
"S  c #8B746E",
"D  c #92766F",
"F  c #9A746D",
"G  c #8F7B77",
"H  c #837C7D",
"J  c #8B7D7C",
"K  c #897273",
"L  c #937673",
"P  c #987772",
"I  c #977A75",
"U  c #9C7B73",
"Y  c #927B79",
"T  c #A37D75",
"R  c #A87B74",
"E  c #8A807E",
"W  c #93807B",
"Q  c #9C847D",
"!  c #A4837B",
"~  c #AC857F",
"^  c #AE897F",
"/  c #7D7E80",
"(  c #7F8082",
")  c #828385",
"_  c #898586",
"`  c #858688",
"'  c #888789",
"]  c #87888A",
"[  c #8A8B8D",
"{  c #928785",
"}  c #9A8281",
"|  c #918886",
" . c #9E8984",
".. c #938D8D",
"X. c #9E8E8A",
"o. c #96908E",
"O. c #9E918C",
"+. c #8E8F91",
"@. c #9E8E90",
"#. c #8F9092",
"$. c #929395",
"%. c #9C9594",
"&. c #969799",
"*. c #97989A",
"=. c #9A9B9D",
"-. c #A58683",
";. c #AA8781",
":. c #A48A83",
">. c #AD8C83",
",. c #A48E88",
"<. c #B18C83",
"1. c #B88F87",
"2. c #A99187",
"3. c #A2918D",
"4. c #AB938C",
"5. c #B3948C",
"6. c #BA958B",
"7. c #A49792",
"8. c #A29996",
"9. c #AB9B96",
"0. c #A49D9B",
"q. c #AD9D99",
"w. c #B19B95",
"e. c #BC9C92",
"r. c #B69B99",
"t. c #BEA296",
"y. c #BCA19A",
"u. c #B4A19B",
"i. c #9E9FA1",
"p. c #9FA0A2",
"a. c #A2A3A5",
"s. c #ABA5A2",
"d. c #A6A7A9",
"f. c #A7A8AA",
"g. c #A9AAAC",
"h. c #B3A5A0",
"j. c #BCA6A2",
"k. c #BCABA0",
"l. c #BCB0A9",
"z. c #AFB0B2",
"x. c #B7B2B1",
"c. c #C89182",
"v. c #C0978D",
"b. c #C8978E",
"n. c #C3998D",
"m. c #C49C94",
"M. c #C89D94",
"N. c #CEA296",
"B. c #CEA69A",
"V. c #CEA99D",
"C. c #C4A195",
"Z. c #D8A395",
"A. c #D1A599",
"S. c #C7AAA2",
"D. c #DCACA0",
"F. c #C5B5AD",
"G. c #DFB2A4",
"H. c #D7BAAF",
"J. c #CABFBA",
"K. c #D1B7B1",
"L. c #E3B7A9",
"P. c #E4BCAE",
"I. c #EBBFAE",
"U. c #DDC2B8",
"Y. c #DBC1B6",
"T. c #E3C2B5",
"R. c #EBC2B4",
"E. c #EDC5B9",
"W. c #E6C8BE",
"Q. c #EACABD",
"!. c #F2CABC",
"~. c #E2CCC4",
"^. c #EACFC3",
"/. c #E6D3CA",
"(. c #EFDBCF",
"). c #F0D4C8",
"_. c #F3DACF",
"`. c #F8D5C5",
/* pixels */
"$.#.i.d.a.&.#.[ $.&.&.*.d.d.d.f.d.g.d.f.i.[ [ +.[ ` [ ` ( ` j j ` / ( j ) ) j f / ` ] [ ` ( h j ( ] ",
"] $.a.d.a.p.$.[ +.*.a.a.a.d.f.d.z.z.d.d.*.[ [ ` ) ) ` ` ) ` ) ) / h j / j / j ) ( j j ) ` ` / ( ) ` ",
"$.&.=.d.a.=.*.&.&.&.=.a.a.g.a.f.g.g.i.=.$.+.[ ` ) ) j ) ) ) / ) / j f ( / ` ` / j j / ) ` ] ` ` [ [ ",
"&.&.=.d.p.i.i.$.*.*.*.i.a.a.d.a.f.p.=.$.+.] [ ) ) j j j ( ) ) ( ) / / ) ) ) ) ) ( / h ( ) ] ` ` +.&.",
"&.*.i.i.=.=.=.=.+.=.p.i.=.a.=.*.*.p.$.$.+.] [ ) ) ( j ( ` ( ` ) ( j j ( h ` j j h f j h ) ` ] ] +.+.",
"*.&.i.a.p.a.=.=.[ &.=.=.a.=.*.&.&.=.$.$.[ ) ` [ ) ) ` ) $.) ( ` ) f j / j j h j ( j j j ) ] [ [ [ [ ",
"=.*.=.i.i.i.=.=.$.$.$.=.a.*.=.$.&.+.[ &.` ` ` ) ) ` ] ] ] / ( / ) / s ) j / j j j ) / / j j ` ` $.&.",
"=.=.=.*.*.*.p.$.+.#.$.$.=.&.[ +.[ [ ] $.[ +.+.` ` ` ` [ &.` ( ) / ) / ) ( j j / j j j j j / ) [ [ $.",
"+.=.p.=.+.$.+.*.$.$.[ $.$.&.+.[ [ +.+.$.$.[ #.` ) ) [ [ ` ` ) ` ) j ) h j ( ( ) j j h j ) ` ) ] [ [ ",
"+.$.&.=.&.#.[ +.$.$.$.$.&.[ [ ) [ ` ] [ #.+.+.) / ] +.$.` ) ` ) / j j j j j / j j h j ( ` ) ` [ #.) ",
"] ` +.&.$.#.[ $.$.&.&.=.i.#.[ ] ] ` ` ` [ ] ) ) ( ` ` [ ` ( ( ` / / j / j j ( j / ( / ` ` ` ` ] [ [ ",
") ) [ [ +.+.$.[ $.$.$.*.$.` ` [ [ ] ` ) [ ) ` ) ( ` ( ` ` ) ) ) ( j ( / j ) j / / j j ) ) ) [ [ ] [ ",
"/ / ) [ $.[ $.$.&.$.$.&.) ] ` ` ] ] ` ) ] ) ) / ) / ] ) +.( ` ) j ) [ ] / ) h j j j / ` ` j j ) [ ] ",
"( [ $.+.+.&.$.=.=.$.+.$.+.` ) ] [ [ ` ) ` / ) h j ) ) +.) ( ) ) ) ( / j f / ) j j f j ) j ) ( ) [ $.",
"` / [ #.+.[ [ $.#.[ &.` ` ] ) [ [ [ ` ` / j ) [ ( ) / ( ) ) / j ) / / / / f j j j / / ) j h ) ) ] [ ",
") [ &.$.$.[ $.&.$.#.$.+.] [ [ ] +.+.+.[ ) j / ` ) h ] ) [ ( ( / ) / ) ) j ( / h h h j j j / / [ [ ` ",
"[ $.=.&.&.&.$.$.$.[ ] ] [ ` [ &.&.$.$.) ) ) j ( j h ( ) ) / h j ( ( ( j j j j j h j j ( j j ) ) ` ` ",
"&.*.=.i.&.$.&.$.*.+.[ [ ` [ ] =.=.$.+.] [ j j j ) ) ) / h j ( j / / j / / ` j f h / ) ] ( / ` ) ) ) ",
"=.=.&.=.&.=.&.+.&.[ [ [ ` ` [ &.*.=.+.#.` / j h j h ) ) ) j ) / j ( %.7.7.O.X.3.%.o.( ` ` ` ( [ [ +.",
"*.$.=.p.=.p.=.$.[ [ ` ( ) [ +.&.*.p.&.$.` j j j j / ` ) ) ) ) j j s.9.Y  .B S  .G 2.7.) ( j [ ] [ [ ",
"p.&.=.p.&.$.&.&.&.+.` ` ) ( [ i.p.=.+.[ ( ] / f j / / j j / =.$.s.7.X.4 7 :.: c N Q :.8.` ] ] [ ] [ ",
"$.$.$.&.=.*.&.$.] / j j j ) ` [ &.=.&.=.+.( h j / j j h ) ` j.l.F.w.A * z Q.5.- > m >.4.{ ..) ` ] $.",
"] $.$.=.*.$.[ #.` ( j j ` / ) $.$.$.$.$.` ) ) ) j f h h $.J 2.y.4.D 7 + F E.T.n k z C U e.,.8.[ +.&.",
") ] $.&.*.$.=.+.[ ) j h h j / ) ] [ &.` =.a.0.8.%.%.%.=.x.@.Y S.U F P M v.R.I.T F ^ v U C.r k.[ +.$.",
"/ [ 0.8...{ ..| { E J 5.u.q.9.h.K.l.^.J./.(.W.T.U.P.!.H.4.,.>.>.>.$ ! C 5.P.E.N O V U ;.>.m e ` +.#.",
") &.T.G.N.A.V.B.B.N.D.c.Z.L.R.W.L.`._././.~.).`.`.I.R.Y.j.W 6 ~ U 7 ~ ! <.>.>.v F T M P ! } ( ` ` +.",
"` ' r -.2 7 . . ! m = 3 Z L -.} j.r r.N L j.~.Y.e.F 5 = @ # u 6.<.>.U U <.E.V.M.v.<.3 P 4.q ) ` ] ] ",
"j ( h e.+ J h y F c H , q q q y y / y ) f 0 < 8 0 f j ( f H Y >.n.U D U ~ b.M.6.e.4 4.e.../ / j ( ) ",
") ` ' t.O X.[ ..C N _ j j h j / / ) ) ) f j j ) j h s f j g 1 y.< <.U L P R <.M :. .:.q.j h j h s j ",
"( ] ..e.  ,.` O.; N %.j s j j j ( ) ) ( / ) f f h f h ) / / ` K h 9 m.P ! F Q 4.3.w.3.f s s s ( j ) ",
"] $.F.b % 2 Q ^ o X :.H j h s ) j j ) ` ( ( ) h f s f ( f ) ) ` ` j e Z T 1.6.;.I d w i s f j h / ] ",
"] ) L v C c & M x l Z ) j f h j j ( h / j ) j h f j f f f j / / / j j p 8 4 4 e q s a w s s h ) ) ` ",
"[ ` d 0 t t g 0 < , 0 j f j j / j ( j j ) ` / j j j / f j h h / h s h f s h f h h h f f s h ) ) ` ] ",
"+.` ` ` ) ) ) j j h h h h f j h j j j ( ) [ j j h j f h f h j h j h j j a s s s s s h j j j j ) ( ) ",
"` ` ` [ ` ( ) ( h f f j f h j j j j / j ( ` ) j j h j j j / h j h f / ) j h s f f f h h / j ] ) ` j ",
"` ) ` ) ) ` ) ` j j j j j f h j h j j ) ] ) j j h j ( j j j j j h ) ) ` ) / h j h s s s f j j ) ( ` ",
"` ] ) ) ) ) ) j j h s f f s f f j h ) ) / ) f s h h s s h / j ( j h ) ) j ) / h f f w i s s j ( ` ) ",
"j ) f / ` ` ) ( f f f f s j h h f f f h ) s f j h j j f j j j f f j ) [ j f j h f j f w w f j ) ` h ",
") / / / ) ` ) j j j f f s s h j f j h j h j h h f j s f f j h j h ) [ ] j j / / j j j i h / ) ) / j ",
"j / / j ] ) ) ) f s f f f f f s f / f j j j f f / j f s j / f s h ) ) j h f j ) j f j h j j j j j f ",
"j f j j / j j ) h j f s s f h j s s s f f f j j s s s j j / j f s h f j j j j ) j f / j j h j h h h ",
"j f h f j ) ) ) f f f s s f j s j j j / f / j s f s f h s j j h f j j ) / s ) ) / j h h h s j j h j ",
"s j / j j ) f ( s h h f s f f j f j h j f h a a i s h f s f s s s f f ) ( ` ) j ( / a s j j h j / / ",
"a f / ) ) ( ) j h h s i s f h h f f h f f s f f f f i s s i s s s i i i j s s f / / j f s f j j / j ",
"s j j / ) ( j / f i h f s h j / j j f s j a s f f s f s s f a w s f / s h s j h f s s f h h h j f j ",
"/ j / j ) f j j f f s a w s j h s f h h f s f s f f s a f s s a w i s w f s f s s j f f f f j f s f ",
"j h j / / f f j i f f s f f j j j j f h h a w s a s s i s s a w w s a i a s s s h j j f h f f f f f ",
"/ f h j h s f f s s s s f h j f f j s s s s h f a s s s f s a a i w i h i s s s h s f h ( / s s s i ",
"j h j j f j s s f s i s s h j s s j f a f f s s f f h s h s w s w i w ( f h s s j h j ] +.` s f i s ",
"j s s f j h f f a s s s s / j j h f j j s w w f w w i s s h s s f s f j j s h s s ) ` ] +.) ` j s f "
};
