/* XPM */
static char *_41a588e67f545fe9ae1df4732e9d86eol3arRc4T7qMgxvt[] = {
/* columns rows colors chars-per-pixel */
"50 50 156 2 ",
"   c #060402",
".  c #080604",
"X  c #0C0A06",
"o  c #0E0E0B",
"O  c #100D07",
"+  c #110E0A",
"@  c #0E100D",
"#  c #14120D",
"$  c #19150F",
"%  c #161611",
"&  c #191611",
"*  c #171814",
"=  c #1C1A14",
"-  c #1E1D18",
";  c #211E16",
":  c #221F18",
">  c #232017",
",  c #26231D",
"<  c #27231E",
"1  c #25221C",
"2  c #27241C",
"3  c #27241D",
"4  c #27251D",
"5  c #26241E",
"6  c #27241E",
"7  c #27251E",
"8  c #27241F",
"9  c #25221B",
"0  c #29241B",
"q  c #28231E",
"w  c #28241C",
"e  c #28251D",
"r  c #28261D",
"t  c #29261D",
"y  c #28241E",
"u  c #28251E",
"i  c #29251E",
"p  c #28241F",
"a  c #29241F",
"s  c #2B251E",
"d  c #29261E",
"f  c #29261F",
"g  c #2A261E",
"h  c #2A261F",
"j  c #2A271F",
"k  c #2B271F",
"l  c #29261E",
"z  c #2A281F",
"x  c #2C291F",
"c  c #2B281F",
"v  c #292720",
"b  c #2A2720",
"n  c #2B2720",
"m  c #2B2621",
"M  c #2A2721",
"N  c #2A2720",
"B  c #2B2820",
"V  c #2B2821",
"C  c #2C2820",
"Z  c #2D2820",
"A  c #2C2821",
"S  c #2D2821",
"D  c #2C2921",
"F  c #2D2921",
"G  c #2F2A21",
"H  c #2D2922",
"J  c #2D2A22",
"K  c #2E2A22",
"L  c #2F2A22",
"P  c #2E2B22",
"I  c #2E2B23",
"U  c #2F2B23",
"Y  c #2D2A24",
"T  c #2E2B24",
"R  c #2F2B24",
"E  c #2E2B25",
"W  c #2F2C24",
"Q  c #2D2A22",
"!  c #302C22",
"~  c #302B24",
"^  c #302C24",
"/  c #302D24",
"(  c #312D24",
")  c #302C25",
"_  c #312C25",
"`  c #312D25",
"'  c #312D26",
"]  c #312E26",
"[  c #312E27",
"{  c #322E26",
"}  c #332F26",
"|  c #322F27",
" . c #342F26",
".. c #312D25",
"X. c #332F28",
"o. c #353127",
"O. c #343027",
"+. c #333029",
"@. c #343028",
"#. c #353029",
"$. c #343129",
"%. c #363028",
"&. c #363328",
"*. c #373329",
"=. c #35312A",
"-. c #35332A",
";. c #36322A",
":. c #36332A",
">. c #36332B",
",. c #37332B",
"<. c #37342B",
"1. c #35322A",
"2. c #39332A",
"3. c #38342A",
"4. c #39342A",
"5. c #38342C",
"6. c #38352C",
"7. c #3A372C",
"8. c #39362E",
"9. c #3A362E",
"0. c #3A372E",
"q. c #39352D",
"w. c #3D382F",
"e. c #3C392E",
"r. c #393630",
"t. c #3F3A31",
"y. c #3E3B32",
"u. c #3F3B33",
"i. c #3F3B34",
"p. c #3E3A31",
"a. c #413C2F",
"s. c #403C33",
"d. c #433F36",
"f. c #413D34",
"g. c #434037",
"h. c #444137",
"j. c #454137",
"k. c #444136",
"l. c #494437",
"z. c #464238",
"x. c #46433A",
"c. c #464239",
"v. c #48433A",
"b. c #49443B",
"n. c #48453B",
"m. c #49463C",
"M. c #4D483E",
"N. c #4B483E",
"B. c #5D4932",
"V. c #4D4A41",
"C. c #514D44",
"Z. c #555146",
"A. c #565348",
"S. c #5A554B",
"D. c #625E54",
"F. c #646056",
/* pixels */
"X o o o @ @ @ @ @ @ @ @ @ @ @ @ @ @ @ @ @ o o o o @ @ @ @ @ @ @ @ o o o o o o @ @ o o o o o o o o o ",
"X o o o @ @ @ @ @ @ @ @ @ @ @ @ # @ @ @ # @ # # @ @ @ @ @ @ @ o @ @ @ @ @ @ @ @ o o o @ o o o o o o ",
"X o # # * * = = * * * * * * = * * * * % % * = - * * = = * * * * * = * * * * * * * * * * * * % * * % ",
"o @ % : 1 _ v.w.V : 1 1 1 q r _ ;.2 9 > : : : : 9 1 1 r 1 1 9 1 1 9 1 1 1 2 1 2 2 9 2 1 m 2 2 1 2 m ",
"o @ * = ; s.M._ 2 = : 1 r 1 2 ;.0.r = 9 9 9 9 1 9 9 r _ r 1 r r r P 2 2 9 r 9 ; 2 r ~ 9 P Y Y 1 r 2 ",
"o @ = * - ;.0._ 9 = 9 1 r : P b.f._ = P 9 > r 2 r P 3.;.2 2 P 9 > P > 2 > ; P _ P 9 ;.0 9 1 +.= 2 2 ",
"o @ % + * - > - * $ ; : 1 = 9 r ; = - _ : _ m $ r ! 0.h.r 9 P 9 r 0.W > r p.c.g.- 9 0.P = r i.* > ;.",
"o @ * # o # # # + = > > 1 * ; m r r m _ r  .= * h.3.;.b.r ; <.9 2 _ r - r ;.p.0.1 : _ ;.= 1 _ * = 0.",
"o @ - > = # X o = r r 9 r ; - 1 r 0.P P 2.o.: = p.c.x x r = ;.9 > Y 1 = : V Y P 9 $ : P $ > P $ $ W ",
"o @ 9 r z V P r r P r - m q * * P ;.= > _ ; 9 * 9 P r 2 r * ;.9 $ 9 2 # $ = ; * # = $ = * Y ;.; 9 9 ",
"o @ > ;.0.P _ 9 P ;.r : _ P : $ P W = - = # 1 # m 9 ; 9 9 $ W : = : = # : $ + + = m 9 = 1 0.r ; r = ",
"o o - r 2 9 _ 9 <.N.r ; w.0.9 * : r # = > 9 9 $ _ P r > * $ - ; > 1 # $ P P z x ! ! ! ! - : # 9 _ 9 ",
"o o % = 1 p.0.9 ;.f.P ; c.+.* 9 # # : r P 9 P > r r _ ; P Y r r 9 9 P P P ! ! o.o.w.w.2.- $ = 0.0.3.",
"o @ = 1 0.c.0.9 V P 2 : Y Y # 2 9 : m _ 0.P r o.r r _ > P _ _ r P 2 _ s.V.s.o.o.;.p.w.0.p.w.s.V.p.0.",
"o # > ;.X.: $ ; r r = = r - = 2 r _ _ ;.0.s 9  .r P o.r ! ! 0.r f.s.9 +.V.N.p._ : $ # # * 1 p._ - : ",
"@ @ * # + = P o.r * * $ X % 2 <.W = = ; ; =  .f.; 3._ 2 _ ; 0 - s.3.$ * V _ > $ + > P r 9 * # * P 0.",
"o @ X # O.C.s._ = $ 9 > - 1 : 0.;.* # $ * P ;._ r ;.;.9 9 # $ ; e.P # # # # X O ; P _ 0.w.;.= r P 9 ",
"o o # W 3.h._ $ * P r 9 r m = <.;.r P = = > = ; 0.0._ # * m Y 9 ;.= = > = # $ : r W _ 0._ P ; _ <.2 ",
"o o * 0.;.: X - N._ 9 P 9 0.r = ; ; W P $ % ; P P ;.* 9 _ ,._ 9 9 # _  ._ r P P r ; ; ; = ; > r P 2 ",
"o o * $ + # > e.N.P ; m ; P _ $ ; r _ W 9 P P V _ ; ; <.0._ ;._ + ; 0. .P _ P ! _ P 9 9 r 9 9 * # # ",
"o o X X 2 p.0.f.s.r * r * m ;.; P 9 p.P ; P r _ r = P w.0._ ;.f.0._ 0.N.N.h.f.f._ P P r x P ;.Y V P ",
"o o # X - ;.f.e.;.= * 1 # ; ;._ : _ 0.> - 9 2 0.; ;.0.P +.= * 9 f.p.s x 3.z 9 P 0.c.N.C.C.V.p.0.0.b.",
"o @ 1 1 # - = ; 9 # = 1 = + = m m : ; = ; : > ; ;.f.;.0.9 * * * ; r 0.f.f.y.W > = ; P <.p.h.h.y.f.S.",
"@ # P 1 o * > : # # 1 r r = X # : 1 $ * r $ # r p.N.M.0.= - $ : P * * > V P W y.V.<.9 * ; r <.y.f.x.",
"@ @ X o * X # # X 9 P P r r 9 o . . $ P W r # # 1 m : o o 9 W $ # X   . . % m P _ _ _ r $ X X > 0.p.",
"@ # = 9 m > # # 1 _ P P P _ +.W r P ;.;.3.;.r # + # * 2 ;.e.x.N.p.;._ ;.P = o + # # + o * 9 : + 9 ;.",
"o @ = 2 m ;.;.0.p._ P P f.V.A.C.N.g.f.V.b.p.! ! z p.N.h.;.f.N.A.D.A.c.c.c.N.f.;.2 P P P W W 0.1 # P ",
"o o : m P 5.p.s.0.m 1 p.3.0 x r 9 o._ ;.r # . + o # * * _ V r ;.p._ _ A.F.D.Z.3.0.0._ 9 P P f.f.- $ ",
"o o - 9 _ ;.f.f.! 1 = P W P _ P P p.;.> = 9 P _ r = + + + * $ * ; P ;.N.b.0.P P h.P 9 > r r f._ = * ",
"o o = m _ c.f.P 1 + # W W * = * * = : P ;.! P 0.0.;._ _ W 9 * o X + * r ;._  .0.W ; W P ;._ f.= * $ ",
"o o # : ; 9 2 - # % o $ - * + o o X X * 3.g.w.9 9 r _ ;.;.+.;.;.r = X X # ; ; * O ; f.f.V.V.; $ 9 _ ",
"o o o o $ # + % > r 9 X # * m _ r V W * = p.V.x.g.y.0.;.O.;.N.0.0.r.0.2 * X X * > 9 ; W 0.r # > p.0.",
"o # * $ % : m r r > * * 0.<.f.c.c.p._ r # # 9 ;.p.x.V.N.s.s.b.h.c.w.b.h.;.V 1 r V P r 9 = + ; O.b.P ",
"o # - 2 W p.;.P 2 * 2 $ _ ! e.N.V.V.f.;.P = + X o % 1 m _ Y r 2 : > * X X X 9 ;._ P = X X * p.p.f._ ",
"o % - 1 <.V.f._ r 9 V # + $ = P r > ; 9 9 1 V > 9 * # o o + o o + # = 2 O.+.P 0.;.f.P r 2.3.f.P W _ ",
"o % * - 0.N.0._ 9 ; W P $ o X X X * +.0.y.c.s.e.f.m.V.M.p.y._ ! ! x z 2 r r P V.5.C.c.f.N.P h.r $ # ",
"o # * - ,.p._ 9 - = V r.0.;._ P +.p.N.y.0.0.O.O.<.;.;.0.h.h.w.f.Z.d.h.f.;.r 9 2 * V 9 9 <.: V 1 # X ",
"o @ * 1 V 2 * * $ > = = P p.r.<.f.c.z = + # + # * : 1 2 1 P P P 9 9 _ p.M.c.r = # $ $ * = * # # o - ",
"o # * = $ # = * * P r 9 = _ ;.P : # X # * ; * * # o X X X o + + # # * : r e.c.0.r - * O X X X # ; 9 ",
"o o $ $ * - * # 1 _ W 9 * P 0.; X o * r _ 9 _ r ,._ ;.r _ 2 r 9 = * o X # > ;.c.0.;.e.O.W _ +.;.0._ ",
"o o o $ * $ X = X.P _ V # + # X * 1 m p.0.r ;.r f.;.0.c.N.e.f.g.;.s.! r = o * ; ;.N.N.c.c.b.b.c.p.w.",
"o o X X X X - <.i.s.p.+.;.1 * = r ; : ;.r = O = r r V r P V > P w.l.h._ 3.9 + + # # ; 9 2 2 r = # # ",
"o o * * * : ;.p.N.C.C.i.P 2 P _ _ = = P 9 ; O $ ; : : : 2 P 1 9 1 9 9 9 ! P z r r r ; * # o X o # % ",
"o # > O.<.P P W w.s.;.Y : V P _ _ 9 $  .r = 9 = # + + X # : 9 = $ $ # + # * r ;.w.p.f.V # > 0.f.y.w.",
"o # 2 9 > $ # * z P 9 m r.0.+.0.f.;.O ; r # r _ ;._ 9 9 <.p.f.3.<.+.9 1 r _ 0.0._ p._ # _ s.v.c.p.;.",
"o o $ # X . # - * = W 0.f.p.;.i.N.c.9 + # # r 2 f.h.P 2 +.w.V.M.x.r.<.<._ 0.;._ 0.r $ ; p.f.g.y.y.W ",
"X o o # * $ X X * * = > 2 > = 2 ;.0._ r $ # * 9 O.y.r 1 ;.3.N.c.g.p._ _ r _ _ +.$ o o $ * # : V V ; ",
"o o * 1 _ r.W > + X X X X X X + $ r P _ _ : + ; r s.;.: _ 9 P b.0.9 r - > W +.$ # # * X + X # + o X ",
"X o % > W p.y.y.X.2 > : > 2 : o X # ; 9 _ 1 # X $ 2 _ * V 9 P s.0.; 2 $ - > * : * + = z 2 ; = - ; 9 ",
"X X o $ - : r <.;.r V p.0.f.<.0.V # # # $ * - * # X # # - : ; 9 9 2 = + # # Y r.+ m w.&.3.p.w.w.a.B."
};
