/* XPM */
static char *_0fd50c33065485ef20cc85bd3fcf3482Wl7IfJDHSJG11Uw[] = {
/* columns rows colors chars-per-pixel */
"50 50 192 2 ",
"   c #020202",
".  c #0B0C0C",
"X  c #131313",
"o  c #1B1B1B",
"O  c #171718",
"+  c #22211F",
"@  c #2C241B",
"#  c #33291E",
"$  c #3B2D1E",
"%  c #34271B",
"&  c #1D2122",
"*  c #232323",
"=  c #282724",
"-  c #2C2A27",
";  c #27292A",
":  c #2B2B2C",
">  c #332D25",
",  c #302D2A",
"<  c #2D302F",
"1  c #3F3327",
"2  c #35322D",
"3  c #39342E",
"4  c #2F2F30",
"5  c #333333",
"6  c #3B3632",
"7  c #3C3934",
"8  c #3B3B3B",
"9  c #402E1E",
"0  c #49341F",
"q  c #593C1F",
"w  c #493726",
"e  c #523A23",
"r  c #5B3D22",
"t  c #433C35",
"y  c #3F413F",
"u  c #5E4225",
"i  c #57422C",
"p  c #43413D",
"a  c #4D453D",
"s  c #52493F",
"d  c #534739",
"f  c #614428",
"g  c #6C4826",
"h  c #744F2A",
"j  c #784D25",
"k  c #7B512C",
"l  c #7B5732",
"z  c #3C3F40",
"x  c #334047",
"c  c #444443",
"v  c #4E4943",
"b  c #4B4B4B",
"n  c #554B43",
"m  c #594F48",
"M  c #584F46",
"N  c #5C534B",
"B  c #5C5346",
"V  c #4C4F51",
"C  c #424F57",
"Z  c #535353",
"A  c #5B5752",
"S  c #5B5C5C",
"D  c #555859",
"F  c #62574C",
"G  c #645A4D",
"H  c #625546",
"J  c #645A52",
"K  c #6D6151",
"L  c #6A6159",
"P  c #726456",
"I  c #72675C",
"U  c #756A5C",
"Y  c #7C6D5D",
"T  c #5F6061",
"R  c #646464",
"E  c #6C6C6C",
"W  c #666869",
"Q  c #776960",
"!  c #786B61",
"~  c #7F7167",
"^  c #6F7172",
"/  c #747474",
"(  c #7B7B7B",
")  c #74797A",
"_  c #81542B",
"`  c #8B5A2B",
"'  c #89582C",
"]  c #945E2A",
"[  c #835A34",
"{  c #9D632F",
"}  c #9A693C",
"|  c #AC6C2F",
" . c #A2632B",
".. c #B16E2F",
"X. c #BB7331",
"o. c #B77232",
"O. c #C3762E",
"+. c #CC7B2E",
"@. c #D47F2F",
"#. c #837463",
"$. c #827469",
"%. c #8C7C6C",
"&. c #887765",
"*. c #8B7A72",
"=. c #93816D",
"-. c #958473",
";. c #9B8974",
":. c #988572",
">. c #A28D79",
",. c #A7927D",
"<. c #A9967F",
"1. c #848484",
"2. c gray53",
"3. c #838383",
"4. c #8A8A8A",
"5. c #888888",
"6. c #8E8E8E",
"7. c #8C8C8C",
"8. c #858988",
"9. c #908D85",
"0. c #919191",
"q. c #969696",
"w. c #949494",
"e. c #9B9B9B",
"r. c #989898",
"t. c #9D9D9D",
"y. c #9B9B9B",
"u. c #AB9782",
"i. c #AD9983",
"p. c #B39E85",
"a. c #B59E88",
"s. c #BBA48B",
"d. c #A5A49B",
"f. c #A1A1A1",
"g. c #A5A5A5",
"h. c gray65",
"j. c #A4A4A4",
"k. c #A9A9A9",
"l. c #AFAFAF",
"z. c #ADADAD",
"x. c #ABABAB",
"c. c #B1B1B1",
"v. c #B6B6B6",
"b. c #B3B4B3",
"n. c #B9B9B9",
"m. c #BABABA",
"M. c #BCBCBC",
"N. c #BFBFBF",
"B. c #BBBBBB",
"V. c #C2A98E",
"C. c #C4AB91",
"Z. c #C8AF93",
"A. c #CCB295",
"S. c #CDB498",
"D. c #D5BA9C",
"F. c #D8BC9F",
"G. c #CABBA6",
"H. c #DEC3A3",
"J. c #E1C4A4",
"K. c #E7CAA7",
"L. c #EBCDAB",
"P. c #E4CAAC",
"I. c #EED0AE",
"U. c #E6CFB3",
"Y. c #EFD7BC",
"T. c #F1D5B6",
"R. c #C0C0C0",
"E. c #C5C5C5",
"W. c #C4C4C4",
"Q. c #CACACA",
"!. c #CECECE",
"~. c #CBCBCB",
"^. c #CFCFD0",
"/. c #D2D2D2",
"(. c #D5D5D5",
"). c #D4D4D4",
"_. c #DADADA",
"`. c #DDDDDD",
"'. c #DCDCDC",
"]. c #D6D4C9",
"[. c #F6E4CE",
"{. c #E1E1E1",
"}. c #E5E5E5",
"|. c #E7E7E7",
" X c #E6E6E6",
".X c #E4E4E4",
"XX c gray91",
"oX c #E9E9E9",
"OX c #EAEAEA",
"+X c gray92",
"@X c #ECECEC",
"#X c #EBEBEB",
/* pixels */
"R +X@X{.W W 4.Q.+X X XQ.= b  X X+X@XW l.f./ @X@X/./ +X@X/.) S r.!.+X X XM.= Z  X X|.@X1.y.h.W @X@X{.",
"c.f.+X@Xh.0.3.+X(     8 / 0.X   X M.+XZ W _.@X{.R r.k.@X+Xy.r.)  XE     c / r.X   . /.).W S +X@X`.Z ",
"_.W M.@X+X) {.k.    O 1.( c /     : _.n.n.@X+X6.r./.R E.@X+X/ +Xy.    : ) ) 7 W     7 ).c.n.@X X4.r.",
"k.W E _.@X@XE.o   . / X ( * b b     W +X@X@Xl.E 8 6./ E `.@X@XE.X   X / X ) . Z c     W  X@X@Xy./ 5 ",
"k.. E ( @X@Xn./ / = 8   ( *   Z c / / +X@XQ./ Z O 6.. / 4.+X@Xn./ / * 5   ) . . b Z / 3. X@XE./ b O ",
"E r.1.3.4.+X@X3.l.)     ( =   * ( c.M.@X_./ W r.h.!.r.3.3.0.+X+X1.f.)     ( X   : E n.v.@X`.E W q.f.",
"M.3.q.7 1.E.@Xk.E M.  * !.q.  5 M.W ).+X( 3.o v.E.+X/ q.c ( !.+Xy./ n.  : !.1.  8 n.W /.+X) 3.: h.Q.",
"{.c.0.= W E /./ r.l.X v._.{./ 5 q.r.n.k.3.c : n.c.( l.4.: E W )./ 4.c.o n._.{.R c ( f.l.f.1.8 7 v.R.",
"0.O b n.r.) ) `.+X/.6.{.) l.+XE XX+XR.R b R.~.. c 3.X D M.6.3./ `.+XQ.y.`.) n.'.)  X+Xn.E c !.M.X b ",
"W D Z ( r.O / y.@X+X|.d.) E E. X@X_.E / O y.q.o S Z c b ( 4.o ( h.+X+X Xr./ W !. X@X).) W X v.l.= 0.",
"Q./ / ) / / / / h.@X@X1./ / l.@X X1./ S c 5 ; : 5 : 5 5 z b S / / l.@X X1./ / M.@X+X) / / / ) ) / ( ",
"@Xh./ * Z 4.3.Z ( ).@X`./ r.@X@Xr./ & 4 : 5 5 8 c 8 7 c c b c V V / `.@X_./ h.@X@X4.3.7 l.v.  E / ).",
"+X X0.4.Z M.3.. W E  X@XQ.{.@XE.W ; 4 5 5 = 5 7 5 7 7 7 8 8 b S : R E +X@X!.+X@XM.4.5 O E.Q.8 W R. X",
"R @X{.Z 6.= E E.4.q.1.@X@X@X+XZ 8 5 5 5 5 4 5 z 5 : 5 5 7 5 c Z W 8 7.q.@X@X@X`.W D E.v.5 5 6.x.+X X",
"r.h.+X`.S 8 W S 0.* ) M.@X X( R : 7 7 7 7 7 7 c c c 7 5 5 5 c c b D * / R.@X X/ 1.  l.4.o 6.W +X{.Z ",
"R E {.@Xk.4./ c.1.5 / S /.k.E : 5 7 5 7 7 c 8 5 5 8 c c 7 c c c p b 5 / W /.y.) c 5 v.k.W W  X@Xk.y.",
"3.Q.!.).@X1./ X D k.( / / / 8 : 5 5 5 7 7 7 a #.Y B t 6 7 7 5 a M 6 7 Z / / E b M.Q.  c ) E.@Xk.+X1.",
"y.{.D l.y.6./ E D y.( X / S . + : 5 7 7 5 t C.L.L.H.C.&.a a =.J.U.i.- b O / Z X n.E.= / / R.y.t r. X",
"+X/   c.( 6.R.E ( S / 6.R.y.S 7 a 2 : : - %.I.I.I.I.I.L.F.H.I.I.[.Y.n D 6.M.q.6.R S ( 4.E.E l.5 * Q.",
"c..   k.S R {.M.R * E R +XE.Z v Q I J m J S.I.I.I.I.I.I.I.I.I.I.T.T.P T W +XM.6.X 1.D `.l.0.W :   5 ",
"k.  . O E.E._.+Xy.0./ E./ v./ v Q Q Q Q $.F.I.I.I.I.I.I.I.I.I.I.I.I.G W E.) W.M.S S  X+XQ.Q.3.X   O ",
"k.  Z : X X 4.@X XE ) X ) : * 6 J Q Q Q -.;.;.Z.J.I.I.I.I.I.I.L.D.>.t R X ) O 5 1.l.@X_.8 . . ) = O ",
"k.c W     Z  Xc.@X)./ V ( 5 b t n L Q %.p.n - 2 F =.s.C.J.C.s.#.p * * / b ) o ) 3.@X).!.n.O   X ) = ",
") E .   = /.M./ k.@Xc.) c.( y 2 a %.! -.s.K c c 5 = = - %.> = - 5 + Z h.) l.) ( {.+X) 3. X4.    : ) ",
"* ( 1.1.k.`.) / ( ).@X6.W E D > t #.%.;.Z.;.9.].8.x c a Z.F p / C * (  X4.W E R.@X0.( / q. X1.1.1./ ",
"5 R c c ( {.3.4.E {.+XE h.0.W 3 F #.>.>.A.D.I d.b.) A =.I.s.v d.c A q.{./ h.6.k.@Xn.W / v.{.c c b q.",
"q.4..   X W._.Z /.@Xw.r.0.R E Z P :.s.s.V.A.p.=.K s P H.I.K.=.s <.$.h.1.6.6.D / _.+Xq.6.+XS     b D ",
"k.O ) .   * E..X#Xl./ + ( * D Z L -.-.s.s.Y ;.I.D.,.s.a.,.i.A.F.P.J 1./ o ) . R E _.+X{.3.    7 W O ",
"k.  7 : c c 0.@X/.W ) c r.D b 5./ 0.Z I i.i.F.K.s.-.Q m n F ~ u.G.p R / c r.b Z 3.6.+X`.Z c : E . O ",
"k.    b c.c.+X{.( / / l.@X`.M.5 / f.`.( 8 G <.<.%.*.$.%.*.*.$.N 8 W / 3.c.@X_.v.8 E l.@X!.!.3.X   O ",
"/.=   c.( 6.+X( ) X E k.f.E.n.X 7 ( M.^.c o @ > 3 a m N n 6 , ( / / . 3.l.h.!.v.X c ( v.!.E l.5   ) ",
"+Xk.. l.W E y.4.W h.) c ) Z c f.f.W W w.i ] r { q 6 G B 1 w : h.4./ h.E c ) b b y.h.R ) k.1.3.5 c _.",
"W XX4.c./.n./ c D W ( o / 4.  c.6.= 6.7 ` +.g o.@.] f f | } @ D 7 / R W : ).q.X j.l.X ) W `./.b Q. X",
"r.h. X+X{.J ) + R Q.( q.4.S / R.R.5 = i { O.e u _ ' ` _ g i e c o / Q./ 6.6.Z E M.Q.o 5 1.f.@X X{.D ",
"S W `.+X0.1.E R.6.X / W  XW./ O O G.( 0 _ ' q k h h h g r } $ = M.) X ) E  Xn.) 7 X /.n.Z W !.@Xk.y.",
"4.R.@Xl.W * W ) 0.b ) ).@X@Xy.X : k.E %.Y H 1 ' ..X.o.j ' l > a / ) Z ) _.@X@X0.3.O n.r.X / W `.@X/ ",
"q.@XQ./ ) / / ) ) ) k.@X@X@X@X( / ) Z =.C.D.d w # w e e u [ w ; ) / ) n.@X@X@X{.3./ ) ) / / ) 1.+X X",
"@X`.) W Z 0.3.X ) 0.+X@Xh._.@X)./ W   S U %.e |  .j  .O.| _ 7 ^ O / r.@X@Xh. X@X/./ R O c.n.* ( r. X",
"@X( ( X Z n.3.) E `.@X/.) / +X@Xn.W 5 Q.y.o $ 9 % t # @ $ > w.6.) /  X@XQ./ ) @X@Xv.W Z R.E.  b ( Q.",
"f.4.S Q.q.X W D {.@X@XS / 0.4.@X+Xv.6.: * b a K B b 8 F %.F X W R .X@X.XR / q.y.@X@Xk.) : o /.M.D D ",
"R 7 b / r.5 ) M.@X X).R.) E {.~.@X X/ 1.* W b > c b : 8 v Z 5 3.E.@X.X).n./ E {.!.@X X1.( o c.l.X 0.",
"v.Z W q.1.( q.c.^.M.Z {.r.!.E.b E./.Q.E W q.r.b W k.Z E q.( 3.0.v.E.B.W {.r._.v.D n.).n./ W r.0.Z W ",
"@Xk.r.  / (  X3.( b.  3.@X_.c 5 f.) R.Q.) b . Q.).@Xf.q.. / ( +X3.) c.  4.@X/.5 t 0.( n.R.) c o M./.",
"6.k.r.W / ).@X3.( b.  X l.W   5 f.( R.@Xf./ 5 Q.E.y.f.q.W / `.+X3.) c.  X k.Z   t 0.( n.@Xf./ 7 M.).",
"4.b W W n.@X@Xv.!.b     ( *   X 3./.).@X X6.1.b Z ( b W W M.@X+Xn.Q.c     ) .   X 4.)./.@X X1.1.b D ",
"k.X 3.y.@X@Xr.5 4 = R   ( *   1.o 5 5  X@X`.S 3.O 6.X 4.k.+X@Xy.5 5 : Z   ) . . ) * 5 c `.@X`.S / O ",
"c.1.E +X@X`.{.7     R : ( = W o     y. X X@X_.S D r.0.E +X@X_.{.5     E : ) X / o   . 0.{. X@XE.W b ",
").E ).@X_.E E.!.=     3.) S D     D  Xr.r. X@Xl.r.!.W .X@X).W Q.R.+   X ( / D b     W {.q.r.@X+Xh.q.",
"4.R.@X+X3.3./ `.l.Z Z S b ) Z Z D _.v.W E l.@X@X( ( !.@X{.3.1./ {.f.Z Z R b 3.Z Z Z +Xc.E W n.@X@X) ",
"6.@X@X Xq.q.l.).@X@X@X).W 3.@X@X@X@X0.E.n.r.@X@X`.y.@X@X_.y.6.v._.@X@X@X!.W 4.@X@X@X#Xh.n.M.q.@X@X X"
};
