/* XPM */
static char *f6a8053d2bc74ed095f2e7ff4f6bc7cfxggd1xTEIPNLnaSQ[] = {
/* columns rows colors chars-per-pixel */
"50 50 154 2 ",
"   c #020202",
".  c #080807",
"X  c #0C0C0C",
"o  c #100F0E",
"O  c #11100F",
"+  c #131313",
"@  c #181717",
"#  c #1A1916",
"$  c #1B1B1A",
"%  c #221E1A",
"&  c #25221D",
"*  c #29241E",
"=  c #252424",
"-  c #2B2623",
";  c #2D2925",
":  c #2C2C2B",
">  c #322C26",
",  c #332E29",
"<  c #36312C",
"1  c #3A332E",
"2  c #323231",
"3  c #3B3631",
"4  c #3E3934",
"5  c #3B3B3B",
"6  c #423B36",
"7  c #483F37",
"8  c #443E39",
"9  c #483F39",
"0  c #46413C",
"q  c #4B433D",
"w  c #50463E",
"e  c #454444",
"r  c #4D4641",
"t  c #4E4943",
"y  c #4B4B4B",
"u  c #504742",
"i  c #524B45",
"p  c #584E46",
"a  c #544E49",
"s  c #584F49",
"d  c #595147",
"f  c #56514B",
"g  c #5B534D",
"h  c #5F584F",
"j  c #535352",
"k  c #5D5651",
"l  c #5E5953",
"z  c #5C5C5B",
"x  c #61574E",
"c  c #615750",
"v  c #635B54",
"b  c #695F56",
"n  c #645E59",
"m  c #695F58",
"M  c #6A6057",
"N  c #66615B",
"B  c #6B635C",
"V  c #71675F",
"C  c #70685E",
"Z  c #646464",
"A  c #6B6561",
"S  c #6D6964",
"D  c #6C6C6C",
"F  c #706760",
"G  c #746C64",
"H  c #786E65",
"J  c #736E6A",
"K  c #74716D",
"L  c #7A736D",
"P  c #747474",
"I  c #7B7571",
"U  c #7E7A75",
"Y  c #7B7B7B",
"T  c #847B73",
"R  c #817E7B",
"E  c #85837D",
"W  c #8A817B",
"Q  c #848484",
"!  c #8F8782",
"~  c #8C8986",
"^  c #8B8B8B",
"/  c #918B86",
"(  c #928E8A",
")  c #949393",
"_  c #999694",
"`  c gray61",
"'  c #9F9F9F",
"]  c #9B9B9B",
"[  c #A09F9E",
"{  c #A2A19E",
"}  c #A0A0A0",
"|  c #A2A2A2",
" . c #A5A5A5",
".. c gray65",
"X. c #A4A4A3",
"o. c #A8A7A7",
"O. c #AAA8A7",
"+. c #ABA9A7",
"@. c gray66",
"#. c #A9A9A9",
"$. c #ABABAB",
"%. c #ACABAA",
"&. c #AFAFAF",
"*. c #ABABAB",
"=. c #B3AEAD",
"-. c #B0AFAF",
";. c #B1B0AF",
":. c #B1B1B1",
">. c #B4B4B4",
",. c #B4B3B3",
"<. c #BCB8B7",
"1. c #B9B9B9",
"2. c gray73",
"3. c #BCBCBC",
"4. c #BFBFBF",
"5. c #BBBBBB",
"6. c #C2C1BF",
"7. c #C2C0C0",
"8. c gray77",
"9. c #C5C5C5",
"0. c #C6C5C4",
"q. c #C6C6C6",
"w. c #C4C4C4",
"e. c #CAC7C5",
"r. c #C8C8C8",
"t. c gray79",
"y. c #CDCBCA",
"u. c #CCCAC8",
"i. c gray81",
"p. c #CCCCCC",
"a. c #D0CFCE",
"s. c gray82",
"d. c LightGray",
"f. c #D5D5D5",
"g. c gray84",
"h. c #D4D4D4",
"j. c #DADADA",
"k. c #D8D8D8",
"l. c gray87",
"z. c #DFDFDF",
"x. c #DDDCDC",
"c. c #E1E1E1",
"v. c #E2E2E2",
"b. c #E4E4E4",
"n. c gray90",
"m. c #E6E6E6",
"M. c #E7E7E7",
"N. c #E3E3E3",
"B. c gray91",
"V. c #E9E9E9",
"C. c #EAEAEA",
"Z. c gray92",
"A. c #ECECEC",
"S. c #EBEBEB",
/* pixels */
"Z Z.A.c.D Z ^ r.Z.m.m.r.= y m.m.Z.A.D &.| K A.A.s.P Z.A.s.Y z _ i.Z.m.m.3.= j m.m.m.A.Q ` ..D A.A.c.",
":.| Z.A...) Q Z.Y . . 5 P ) @ . + 3.Z.j Z j.A.c.Z _ #.A.Z.` _ Y m.D . . e P _ + . X s.f.D z Z.A.x.j ",
"j.Z 3.A.Z.Y c.#.  = 5 Q R j Y - = e 6.%.O.a.y.~ ) <.Z =.y.e.J q.^ $ # 2 P J 8 z #   5 f.:.1.A.m.^ _ ",
"#.D D j.A.A.q.$   L U L T G U J G G B J B J S n B v N M v n k v k g g f a a a g r .   Z m.A.A.` P 2 ",
"#.X D Y A.A.1.P P L N B N a B t n k a v i v i g x u v r g a a l r x i a g r l r r j P Q m.A.q.P y @ ",
"D _ Q Q ^ Z.A.Q &.W T C % $ $ % % % % % % % & & % & & & % & & & % * & % & % v v f D 1.>.A.x.D D _ ` ",
"3.Q _ 5 Q q.A.#.D ! n n , g a v v i k v g t k k a i l k r f g g 9 g f 0 i 6 v f i =.Z s.Z.Y Q : ..r.",
"c.:.) = D D s.P _ ! T G 1 m v G G g B F N f A A v k F B a n B N q M N r g q n N k Y | &.| Q 5 5 >.7.",
") @ y 1._ Y Y x.Z./ G N 1 N v G G l B F N f A B v x V B a N B B r B N i l q v l k j.Z.1.D e i.3.+ y ",
"D z j Y _ @ P ` A./ F S 3 N v G G g B N g r l l p p v v q g n N u B N u v q v g A x.f.Y Z + >.-.= ) ",
"r.P P Y P P P P ..( T J 1 m v G G g n v N n N v N B N m n B a l u B M a v q l v S x.Y P P P Y Y P Y ",
"A...P = j ^ Q j Y ~ l n 1 N v G G g n n B 4 j j U _ A z 8 n g g r B B i v q v a N Q Q 5 &.>.  D P f.",
"Z.m.) ^ j 3.Q X D R U J 1 n l G G g l k J j Z X.w.c.&.Q D N t f r B N i l q v n B Q 2 @ q.r.5 Z 7.m.",
"Z A.c.j ^ = D q.^ E G n 1 v k G S k k g t P ) 7.,.P ;.x.n J t a r M N i v r g k g z q.>.2 2 ^ #.Z.m.",
"_ ..Z.x.z 5 D z ) J N N < h g S S d l l S Z x.5.N Q ^ A.~ t d a q M N u l r v g v X &.^ @ ^ D Z.c.j ",
"Z D z.A.#.^ P :.Q K L B 1 x d B B f k g l _ c.` Y D Z A._ I r i q m n r l q k l k 5 >.#.Z Z m.A.#.` ",
"Q r.i.f.A.Q P + z T v c < g d B B i g g J [ | 6.U Y { r.( ( r i q m v r g 0 k f N 3.  e Y q.A.#.Z.Q ",
"` c.z &.` ^ P D z U H B , g d B B a g g K Y y ~ 5...%.y R U a u q N m u k q l k B 1.= P P 7.` 5 _ m.",
"Z.P . :.Y ^ 7.D Y F m g , g s A A a f a k U e 2 #.c.S   R A r u q m n i l 0 g f g z Y ^ q.D &.2 = r.",
":.X   #.z Z c.3.Z B v v , d a B B u a a N N e $ 8 _ :   I n r u 0 n v u k 0 k g f Q z x.&.) D :   2 ",
"#.  X @ q.q.j.Z.` G A v > a u n n r a a S S 2 < 8 R 3 - t I i r 0 v v q g 9 g f l z m.Z.r.r.Q @   @ ",
"#.. j : X @ ^ A.m.A a f > a u v v r a r t r a i i a a a i d 0 r 0 v k q f 8 g a l o.A.j.5 X X Y = @ ",
"#.e Z     j m.:.A.J A n > i r k k q a 9 , > , , , , < < > < 3 a 0 g f 0 a 6 f g n x.f.i.1.@   @ Y = ",
"Y D X   = s.3.P #.S g a ; r 0 f s 9 i a i q f a r q g g u i g g 6 a i 6 r 3 r r n x.Y Q m.^     : Y ",
"= Y Q Q #.x.Y P Y B i d - q 6 9 6 3 a a u 0 a a q q d g a i a u < 4 4 , 3 , 0 6 n ^ Y P _ m.Q Q Q P ",
"2 Z e e Y c.Q ^ D S n g ; 0 1 g f 3 f g g i l k f i v v a g g u q i f f f a a f k :.Z P >.c.e e y _ ",
"_ ^ X   X 8.j.j 1.l q q , 6 4 l f < r r i r a i i t i u q r q 8 i n G G G A B g t &.) ^ Z.z     y z ",
"#.@ Y X   % q.c.&.- - - * ; > v g - , < 1 1 3 3 6 4 6 6 3 3 1 , q B G G G G G i 9 R x.c.Q .   5 D @ ",
"#.  5 : e e ) A.r.i i q $ % & g a # & - & - ; ; - > > , - , , - 9 g N N n l v n t Q Z.x.j e : D X @ ",
"#.    y :.:.Z.c.Y l d k - < , 1 < & 3 6 4 3 8 8 6 8 q q 4 0 q 6 3 3 4 3 4 3 8 r t D &.A.i.i.Q +   @ ",
"s.=   :.Y ^ Z.Y Y a n l > r 0 8 ; - a k a r l k a a v v u k v k 6 3 1 > < ; t i f e Y >.i.D &.2   Y ",
"Z.#.X &.D D ` ^ D n t g , t q g 6 < f l a u l l a g n n i v N n q i q 4 0 1 k g N [ Z Y #.Q R 2 e j.",
"Z B.^ :.i.>.P e z j l v , r q g g 0 f k i q k l a d n N i v N n r v l q f 9 l g N ..+ Y Z x.s.y r.m.",
"_ ..m.Z.c.z Y $ Z n a f , r q l k q f k i r k l a d n n r v N v q v v r k 0 g a N 3.$ 2 Q | A.m.c.z ",
"z D x.Z.) Q D 7.^ 0 r g , q 0 g g 0 f k i r l g a g N v r v m v 0 v v q k 0 v k k @ s.1.j Z i.A.#.` ",
"^ 7.A.&.D = Z Y ) r g g > q 7 d g 0 f k i r l k a f n n r v N n 0 v c q g 0 k g v = 1._ + P D x.A.P ",
"_ A.r.P Y P P Y Y t 9 u > q 7 d d 8 f k i q k k i g n v q v n v 0 v x 0 d 9 k f v P Y Y P P Y Q Z.m.",
"A.x.Y Z j ) Q + Y u i g > 0 9 g g 8 a g r q g k i p M v q x n v 0 v v q g 0 l k N D Z @ :.1.= Y _ m.",
"A.Y Y @ j 1.Q Y D a u u > 0 8 g g 8 i f r q d g u p v v q g n v 0 v v q k 0 f s n &.Z j 7.q.  y Y r.",
"| ^ z r._ + D z c.a 9 a ; 0 6 f f 6 i g r q g g w i v x 7 g v g 9 v x 0 g 9 l k B x.#.Y : $ s.3.z z ",
"Z 5 y P _ 2 Y 3.A.t r a ; 8 4 i a 4 r a r 0 a f q i x g 9 d l g 6 g g 0 f 8 g a n x.m.Q Y $ :.&.+ ) ",
"1.j Z _ Q Y _ :.i.0 4 r ; 6 3 t i 3 r i q 8 a a 0 q g g 6 a k g 6 g g 8 i 8 g a f ;.f.1.P Z _ ) j Z ",
"A.#._ . P R m.Q Y 8 8 a - 4 1 r r 1 q r 9 6 i i 9 q p p 6 i g f 6 d a 6 i 6 g f a ^ Y 1.7.Y e % 3.s.",
"( #._ Z P f.A.Q Y 4 6 q * 1 < 9 9 , 6 0 4 3 q q 6 6 w w 1 q u r 1 u r 3 q 3 i i i ^ Y 1.A.| P 5 3.f.",
"^ y Z Z 1.A.A.>.i.< 1 q * > - , < - , , , > < < , , 1 1 > 1 1 1 > 1 1 > 3 , f f r Q f.s.A.m.Q Q y z ",
"#.+ Q ` A.A._ 2 : < 9 r u u u u i i i i i a a t a a s p d a a d a g a g f g l f k = 2 e z.A.x.z P @ ",
":.~ D Z.A.x.c.5   : 4 3 4 3 6 6 3 4 8 q q q t 8 r t i i a f g g a i i g i k g k a . X ) c.m.A.q.D y ",
"k.D f.A.j.D q.i.= X X D D j j X o j 6.Q Q w.q._ Q :.Z w.y.1.Z :.%.: O $ P K l y O   D c._ _ A.Z..._ ",
"^ 7.A.Z.Q Q P x.&.j j z y Y j j z j.>.Z D &.A.A.Y Y i.A.c.Q Q P c.| j j Z y Q j j j Z.:.D D 1.A.A.Y ",
"^ A.A.m._ _ &.f.A.A.A.f.Z Q A.A.A.A.) q.1._ A.A.x.` A.A.j.` ^ >.j.A.A.A.i.Z ^ A.A.A.A...1.3._ A.A.m."
};
