/* XPM */
static char *e425970b3b32480cb2b403e8ed2adbf1hC6aPwxqmyydQuKh[] = {
/* columns rows colors chars-per-pixel */
"50 50 237 2 ",
"   c #606060",
".  c gray92",
"X  c #ECECEC",
"o  c #E1E1E1",
"O  c DimGray",
"+  c #676767",
"@  c #8B8B8B",
"#  c #C8C8C8",
"$  c #EAEAEA",
"%  c #E7E7E7",
"&  c gray79",
"*  c gray14",
"=  c gray29",
"-  c gray91",
";  c #686868",
":  c #AFAFAF",
">  c #A0A0A0",
",  c gray44",
"<  c LightGray",
"1  c gray45",
"2  c gray82",
"3  c gray47",
"4  c #5D5D5D",
"5  c #9A9A9A",
"6  c gray81",
"7  c gray",
"8  c #555555",
"9  c #848484",
"0  c gray61",
"q  c #A5A5A5",
"w  c gray42",
"e  c #E2E2E2",
"r  c #B1B1B1",
"t  c #A2A2A2",
"y  c gray65",
"u  c #909090",
"i  c gray51",
"p  c gray49",
"a  c gray2",
"s  c #3C3C3C",
"d  c #717171",
"f  c #929292",
"g  c gray9",
"h  c #101010",
"j  c #BCBCBC",
"k  c gray34",
"l  c #656565",
"z  c #DADADA",
"x  c #626262",
"c  c #9B9B9B",
"v  c gray67",
"b  c #989898",
"n  c #797979",
"m  c gray90",
"M  c #6C6C6C",
"N  c #060606",
"B  c #464646",
"V  c #131313",
"C  c gray3",
"Z  c gray84",
"A  c #5F5F5F",
"S  c #E9E9E9",
"D  c #DFDFDF",
"F  c #AAAAAA",
"G  c gray1",
"H  c black",
"J  c #1B1B1B",
"K  c #7C7C7C",
"L  c #444444",
"P  c gray46",
"I  c gray18",
"U  c gray85",
"Y  c #BBBBBB",
"T  c gray72",
"R  c #8E8E8E",
"E  c #D2D2D2",
"W  c gray38",
"Q  c gray78",
"!  c #040404",
"~  c #282828",
"^  c #7B7B7B",
"/  c #393939",
"(  c #646464",
")  c gray22",
"_  c #D5D5D5",
"`  c #B9B9B9",
"'  c gray54",
"]  c #A9A9A9",
"[  c #6F6F6F",
"{  c #D8D8D8",
"}  c #C6C6C6",
"|  c gray11",
" . c gray5",
".. c #727272",
"X. c #202020",
"o. c #484848",
"O. c gray40",
"+. c #ACACAC",
"@. c gray24",
"#. c gray56",
"$. c gainsboro",
"%. c gray77",
"&. c #161616",
"*. c #111111",
"=. c gray7",
"-. c #0B0B0B",
";. c #E6E6E6",
":. c #9F9F9F",
">. c #323232",
",. c gray66",
"<. c #0C0C0C",
"1. c #7E7E7E",
"2. c #747474",
"3. c gray15",
"4. c #3F3F3F",
"5. c #565656",
"6. c #CACACA",
"7. c #767676",
"8. c gray32",
"9. c #777777",
"0. c #888888",
"q. c gray73",
"w. c #232323",
"e. c #343434",
"r. c #090909",
"t. c #4E4E4E",
"y. c #515151",
"u. c #808080",
"i. c #E4E4E4",
"p. c #4C4C4C",
"a. c #181818",
"s. c #6D6D6D",
"d. c #818181",
"f. c #AEAEAE",
"g. c gray48",
"h. c #010101",
"j. c gray50",
"k. c #252525",
"l. c #222222",
"z. c gray70",
"x. c gray86",
"c. c #A4A4A4",
"v. c gray80",
"b. c gray57",
"n. c gray52",
"m. c #020202",
"M. c #2A2A2A",
"N. c #B4B4B4",
"B. c gray87",
"V. c #979797",
"C. c gray75",
"Z. c #C5C5C5",
"A. c gray74",
"S. c #CDCDCD",
"D. c gray59",
"F. c gray20",
"G. c #B6B6B6",
"H. c #959595",
"J. c #434343",
"K. c gray53",
"L. c #2C2C2C",
"P. c gray69",
"I. c #151515",
"U. c #B7B7B7",
"Y. c gray88",
"T. c #353535",
"R. c gray68",
"E. c gray16",
"W. c gray83",
"Q. c #1D1D1D",
"!. c #C0C0C0",
"~. c gray30",
"^. c gray60",
"/. c #8D8D8D",
"(. c #494949",
"). c #C1C1C1",
"_. c #CBCBCB",
"`. c gray4",
"'. c gray26",
"]. c #5A5A5A",
"[. c gray55",
"{. c #838383",
"}. c #9D9D9D",
"|. c #585858",
" X c #505050",
".X c gray10",
"XX c gray43",
"oX c #6A6A6A",
"OX c #CECECE",
"+X c gray8",
"@X c #D7D7D7",
"#X c gray37",
"$X c #DDDDDD",
"%X c #3A3A3A",
"&X c gray71",
"*X c #898989",
"=X c #535353",
"-X c gray89",
";X c gray28",
":X c #868686",
">X c gray39",
",X c gray6",
"<X c #313131",
"1X c #3E3E3E",
"2X c gray58",
"3X c gray17",
"4X c gray64",
"5X c #070707",
"6X c gray35",
"7X c gray21",
"8X c gray27",
"9X c #373737",
"0X c #5B5B5B",
"qX c #D0D0D0",
"wX c gray62",
"eX c gray76",
"rX c #A7A7A7",
"tX c #191919",
"yX c #272727",
"uX c #C3C3C3",
"iX c gray36",
"pX c #939393",
"aX c gray19",
"sX c #B2B2B2",
"dX c #2F2F2F",
"fX c gray23",
"gX c gray13",
"hX c gray33",
"jX c gray31",
"kX c gray12",
"lX c #0E0E0E",
"zX c #1E1E1E",
"xX c #414141",
"cX c gray25",
"vX c #4B4B4B",
"bX c #2D2D2D",
"nX c gray63",
/* pixels */
"  . X o O + @ # $ % % & * = % % - X ; : > , X X < 1 . X 2 3 4 5 6 $ % % 7 * 8 % % % X 9 0 q w X X e ",
"r t $ X y u i - p a a s d f g a h j - k l z X o x c v X . 0 b n m M a N B 1 b V a C 2 Z ; A S X D k ",
"z + j X $ 3 e F G H J 9 K L P a H I U Y T X $ R c E W Q X $ , - 0 ! H ~ ^ n / ( N H ) _ r ` X m ' c ",
"] O [ { X X } | H  ...V K X.o.= H H O.S X X +.M @.#...[ $.X X %.&.H *.1 =.n -.8 B H H O.;.X X :.d >.",
",.<.[ 1.X X T 2.1 3.4.H K X.H 5.L 2.P - X 6.7.8.J #.-.9.0.S X q.2.2.w.e.H n -.r.t.y.2.u.i.X %.7.p.a.",
"s.b 9 i 0.. X d.f.g.G h.j.k.H l.p z.j X x.P + 5 c.v.b d.u.b.. S n.> n H m.K h H M.[ q.N.X B.s.; V.:.",
"C.i V.) n.Z.X ,.s.A.a X.S.D.! F.A.; _ $ K u.| G.Z.- 9.H.J.1.6 . :.P ` h.M.v.K.G 4.` ( 2 $ n i L.y & ",
"e P.f 3.O s.E P b f.I.U.U Y.9.T.D.c T ,.i B M.Y r p R.@ E.M O W.9.' P.Q.Y z o x J.1.> +.t 9 @./ N.!.",
"f a.~.q.^.g.3 $.S 2 /.e 3 R.- [ - S !.x (.)._.`.'.u.I.].j [.{.1 B.- 6.}.B.n q.x.^ % $ ` M J.6 j *.(.",
"O |. Xj.c .XP 0 X . % :.3 M } m X z XXd g +.U..Xj.[ 8 k n.@ | p c.. $ i.5 9.oXOX;.X Z 3 O.*.U.: k.u ",
"6.9.7.3 9.P 7.7.q X X n.7.9.: X m 9 9.P P 3 3 7.{.A.9.7.3 9.P 7.7.: X ;.9 9.9.j X $ 3 9.P P 3 3 7.1.",
"X c., w.8.@ u. Xj.W.X B.P c X X c j.X.C.: +Xl s.@XX > [ J #X9 @ k 9.$XX U 7.q X X 0.d.%XR.&Xh.XXd Z ",
"$ ;.u *X=XC.{.`.oXM % X _.-XX } n 4.N E %.;Xl ).X $ % :Xu.>Xj *X,X2.M . X v.S X A.*X<XJ Z.& 1Xl ).;.",
"x X Y.8 #.3.M } ' 2X9 X X X . |.1 &XZ.3XT.@ ^.X _ P X B.].i 3.oX} g.b V.X X X $X( ].Z.G.<X<X#.v . m ",
"^.q $ $X4 4.; A u l.g.j X ;.p f *.4XF h ' w $ e A K.R.X v.Q.g   l g.3X1 !.X i.P n.5X: ' J R O . Y.5.",
"  M Y.X F 0.1 z.n.T...A < ,.P L s ,.&X6XM { X N.*Xw >XX . :./.M z.n 7Xn l < }.n 8X9X&X,.l + ;.X v }.",
"u.& S._ X n.9.=.0X,.1...9., ;XZ.&X.XL 1.Z.X ] . K.g.qX# z X p 3 ,Xd q M d 9.XX(.j & G '.g.} X ] - :X",
"0 Y.|.f.0 /.9.M 0XwX1.=.9.A h.eX: 9XP 3 C.> = ^.D rXe = P.y :X9.( ..c O.tX9.k =.T Z.yX7.9.uX}.4.c ;.",
". 9.5XP.1.#.).s.K iX2.#.).}.#.A W 1.i qX, q B Q.# $ , h.N.1.pXZ.[ 9.iXg.#.C.2X[.  A j.0.Q [ f.aXl.6.",
"z.`.H ] A x -XA.>Xw.s.  . Q K.V w A o T /.s.8XH F.}.C h.c.s.].. sX2.&.1.O . j [.g K.|.D +.b.w dXH >.",
"] H `.tX} } z . }.f ..} 9.&XQ  XP 2 X _.& R tXH J #.H <.yX).} z $ @ H.i } n uXj iXiXi.S _.& {.g h.a.",
"] a 5.E.,X&.' X i.M n &.^ L.E.[.wX$ . fX,X-.1 k.J #.a A gX,Xg @ X m O.M &.3 tX7Xn.: X x.1X,X`.3 3.a.",
",.L l H H hXm sXX _ 7.jXK aXP 3 X U E %.g H N {.I R o.x H H 0X$ &X. 6 3 (.n kX3 i X W.OXq.g H +Xg.3.",
"^ XXr.H yX2 j 1 ] X sXg.P.i 9.-X;.:Xg.S *Xr.H E.2.3 , H H L.U 7 2.sXX q n f.3 1.Y.$ ^ {.m @ H H dX^ ",
"gX1.:X:X] $.g., K Z X R + s.U.X > ^ K @ -XR :X:X>XE.u.:X:Xf.z 1 d 9.D % @ + [ uXX u p 9.2X;.:X:X:X9.",
"e.W ;X;Xj.-Xd.' XXY.. M q pXV.X 7 O + G.$.hX;Xo.p J.iX;X;XK.e d.K.9.m -X, q R ] X q.l 2.G.Y.;X;Xo.V.",
"V.0.lXH ,XuXz 5.E X pXV.u x 3 $X$ t b.. #X! H 1XA :Xf H H *.6 @X0X_ X n.#./.|.7.z . D./.S A H H o.|.",
",.tXg. .H kX} -X. R.2.kXK w.|.( _ S - @ ! H 3X7.zX#.a.1.`.H l.v.-XX q 7.Q.n lX>XM x.- e {.! H fXoX.X",
"] h.%XE.'.L f X 2 O 3 L c 6Xo.0.0.m .  X'.dXw `.J #.h.'.yXxXL b.X S.+ , L ^.=  Xi #.. $.8 '.3XM  .a.",
"] H H o.sXr - -X1.P , R.X $.C.>.P 4XX _ _.' .XH J #.H H y.&XR.X $X3 1 {.r X @XU.1XM f.X 6 OXu.=.H a.",
"2 k.H P.p #.- 1.g.h s.,.4XQ Y =.fXp C.< d q 8XH 9.} Q.h.N.1.pXS K 9.`.{.R.q 6 N.&.L j.U.S.[ R.aXH g.",
". F  .+.; [ 0 @ w rX^ 8Xn =X8X> t + + q.9 j.B 9X$.. ,.m.F ..w rX0.P rX[ 8X3 = p.:.y >X^ F K.u.aXcXz ",
"l - *Xz.qXU.1 '.].; K kX1 *Xm.r R * u k $.E ~.OXZ 3 - ^ Y W.z.; %Xd >XO.3X@XH.=.4XR.h g.O.$X2 (.6.m ",
"b rX;.S e A g.kX>X# 1.D.*X#X1 !.).aX3.V.4X$ i.-X  :XP.- $ o k i zX..# ..#.[.k XXj & kXF.K.4XX i.o |.",
"A w D S b.9 [ !.R V d ( % uXP a.a.C.qX1X; ).X z.*XoXx X ;.@ ' l ).^ I.n M ;.` n / h 2 Y  X( OXX F :.",
"' eXX : O w.O.n b.vXn @XX X wX&.bX+.G.5Xs.w Z X n j._.X c., tX  1.^ hX3 U X X f {.J q.b h , O $XX P ",
"V.X # P 3 ..7.^ 3 3 F X X X X p 7.g.^ 1 1 9.K . B.4XX eXP 9...7.^ 9.3 T X X X -Xu.P ^ g.1 1 3 K.- ;.",
"X B.g.O.8.pXu.h g.f $ X c.{ X @X7.( G eXsX<X^ u X X D ..iXW [.*XtX7.b X X rXi.X E d   tXr T w.K b m ",
"X j.j.+X8.T {.n [ D X < 3 9.. X q.oX7XqX).I.fX9 Q X 7.u.h #XN.[.g.7.i.X & 9.3 X X &X+ hXeXQ m.= p 6.",
"nX*X4 & D.V w ].-XX X iX1 b.' X . &X#.E.gX%.OX(.  R pXiX6.@ +X;   -XX -X>XP D.:.X X ] g.bX| < A.6X|.",
">X%Xp.2.c T.3 C.X m W.uXn s.o _.X % 2.:Xl.,.sXr.K M >.k g.' / i } X -X@Xq.9.M Y.OXX ;.:X^ | r +.*.b.",
"U.y.+ H.9 K D.z.6 C.k Y.^.OXQ = Z.E # XX+ H.^.~.+ ]  XM D.j.u.b.G.Q Y + Y.c z N.|.` _ ` 7.l c pX XO.",
"X ] c N ..j.;.{.^ z.a {.X U 8XF.nX^ eX& g.p.r.6.W.X t H.,Xd 1.S d.9.z.5X@ X < T.4.b.K Y ).^ L kXj < ",
"#.F c l ..Z X {.^ z.a *.R.O.h.F.nX^ ).X > 1 aX6.} 0 4XH.O 2.$XS u.9.z.H g v hXH 4.u K q.X > ..%XA.W.",
"*Xp.+ ( Y X X G.OXjXm.H K X.H *.i E W.X ;.R n.~.8 j.p.w + j X $ ` # B H H n -.H I.0._ qXX % 9 n.jX].",
"] =.{.wXX X c aXdX* >XH K X.h.K.| aX>.;.X B.#Xu.J #.h *X] . X }.aXaXE.y.H n -.lXn l.aXJ.D X $.#Xd a.",
"P.K.s.- X $.-X/ H G >X3XK k.oX| H N 0 m m X U 4 |.b f s.S X z Y.<XH ! XX~ n *.d zXH C pX-Xm X Q oXp.",
"@X[ @XX { M Q 6 * H 5Xu.n #X0Xh.! 0X% b 5 % X f.V.6 ; -XX _ + 6.uXX.H h K 9.6X= h.h.oXo 2Xb X $ rXV.",
"0.uXX - i {.P B.:  X XiXvXn  X X6Xx.G.O.M f.X X K 1.v.X o d.K...Y.t  X XW ~.{. X X=X$ z.XXoXT X X n ",
"#.X X m H.2XR.W.X X X @X+ u.X X X X pXZ.Y ^.X X $X0 X X z :./.U.U X X X 6 + 0.X X X X y T C.H.X X ;."
};
