/* XPM */
static char *_180b1460b0c4e48c677c41992366301ktHCfecfJX4Tu1Zt[] = {
/* columns rows colors chars-per-pixel */
"50 50 199 2 ",
"   c #020202",
".  c #0B0B0B",
"X  c #131313",
"o  c #1E1515",
"O  c #1B1B1B",
"+  c #2A181A",
"@  c #242323",
"#  c #282525",
"$  c #2B2B2B",
"%  c #312725",
"&  c #333333",
"*  c #3E3634",
"=  c #3C3C3C",
"-  c #50312A",
";  c #4A2F30",
":  c #483A3A",
">  c #5F3B36",
",  c #653D38",
"<  c #67413A",
"1  c #444444",
"2  c #4E4847",
"3  c #4B4B4B",
"4  c #494441",
"5  c #594745",
"6  c #535353",
"7  c #5B5754",
"8  c #5C5C5C",
"9  c #684946",
"0  c #754C43",
"q  c #61524F",
"w  c #7D534A",
"e  c #6C5E5D",
"r  c #685857",
"t  c #745A56",
"y  c #7B5954",
"u  c #7B5E5B",
"i  c #705F5B",
"p  c #72625B",
"a  c #646464",
"s  c #6C6C6C",
"d  c #6D6667",
"f  c #73696A",
"g  c #786865",
"h  c #7C716E",
"j  c #747474",
"k  c #7B7775",
"l  c #7B7B7B",
"z  c #834D46",
"x  c #80574E",
"c  c #8A554E",
"v  c #815B55",
"b  c #855D5A",
"n  c #82635D",
"m  c #8B645D",
"M  c #846360",
"N  c #816B67",
"B  c #8B6A64",
"V  c #8D6965",
"C  c #85726D",
"Z  c #8E716A",
"A  c #94726B",
"S  c #9A746B",
"D  c #8D7873",
"F  c #817C7D",
"G  c #8B7D7B",
"H  c #867674",
"J  c #937575",
"K  c #937B75",
"L  c #9D7C75",
"P  c #907678",
"I  c #947E78",
"U  c #966C68",
"Y  c #A27C74",
"T  c #A17E78",
"R  c #95817C",
"E  c #9A837E",
"W  c #A2837B",
"Q  c #AB857E",
"!  c #AC887E",
"~  c #838383",
"^  c #8F8580",
"/  c #8B8B8B",
"(  c #8C8987",
")  c #958682",
"_  c #9C8682",
"`  c #9C8884",
"'  c #9C8E8A",
"]  c #948B87",
"[  c #949494",
"{  c #9C9493",
"}  c #9B9B9B",
"|  c #A48C85",
" . c #AD8D84",
".. c #A08E89",
"X. c #A28680",
"o. c #B18C83",
"O. c #B28F88",
"+. c #A5928C",
"@. c #AE958E",
"#. c #B79187",
"$. c #B59289",
"%. c #BB958C",
"&. c #BF988F",
"*. c #B99085",
"=. c #A89B97",
"-. c #B39A93",
";. c #BB9C94",
":. c #B8A29F",
">. c #A5A5A5",
",. c #A6A6A6",
"<. c #A3A3A3",
"1. c #A8A8A8",
"2. c #ABABAB",
"3. c #ADADAD",
"4. c #AFAFAF",
"5. c #ABABAB",
"6. c #AEA8A3",
"7. c #BBAAA4",
"8. c #B1AFAF",
"9. c #B6A8A5",
"0. c #BDB1AB",
"q. c #B0B0B0",
"w. c #B3B3B3",
"e. c #B5B5B5",
"r. c #B7B7B7",
"t. c #B3B3B3",
"y. c #B8B8B8",
"u. c #BABABA",
"i. c #BCBCBC",
"p. c #BFBFBF",
"a. c #BBBBBB",
"s. c #CA998C",
"d. c #C39D93",
"f. c #C99F93",
"g. c #D19D90",
"h. c #C4A49B",
"j. c #C5A296",
"k. c #D4A499",
"l. c #C3ACA5",
"z. c #C3ACA5",
"x. c #D1ACA1",
"c. c #DAAFA2",
"v. c #C6B4AD",
"b. c #CBB3AC",
"n. c #D1B4AB",
"m. c #DBB5A8",
"M. c #CBB9B3",
"N. c #C7BBB8",
"B. c #D0BBB3",
"V. c #E2BAAB",
"C. c #E4BEB3",
"Z. c #DFC0B5",
"A. c #EBC0AD",
"S. c #ECC3B5",
"D. c #EAC9BD",
"F. c #E3C3B8",
"G. c #C1C1C1",
"H. c #C3C3C3",
"J. c #C5C5C5",
"K. c #C6C6C6",
"L. c #C4C4C4",
"P. c #C9C9C9",
"I. c #CACACA",
"U. c #CDCDCD",
"Y. c #CCCBCB",
"T. c #C8C5C5",
"R. c #D1CBCA",
"E. c #DECCC4",
"W. c #D1D1D1",
"Q. c #D3D3D3",
"!. c #D5D5D5",
"~. c #D6D6D6",
"^. c #D4D4D4",
"/. c #DADADA",
"(. c #DEDEDE",
"). c #DCDCDC",
"_. c #DED7D4",
"`. c #E6CBC0",
"'. c #F0CFC3",
"]. c #E2D2CB",
"[. c #EFDACF",
"{. c #E9D7CD",
"}. c #F6D8CB",
"|. c #E0DEDF",
" X c #E3D9D6",
".X c #EDE0D8",
"XX c #E0E0E0",
"oX c #E2E2E2",
"OX c #E5E5E5",
"+X c #E6E6E6",
"@X c #E7E7E7",
"#X c #E4E4E4",
"$X c gray91",
"%X c #E9E9E9",
"&X c #EAEAEA",
"*X c gray92",
"=X c #EBEBE9",
"-X c #ECECEC",
";X c #ECEBEB",
/* pixels */
"a *X-XXXs a / P.*X+X+XP.# 3 +X+X*X-Xs 4.<.j -X-XQ.j *X-XQ.k 8 } U.*X+X+Xi.# 6 +X+X@X-X~ } ,.s -X-XXX",
"q.<.*X-X,.[ ~ *Xl     = j [ X   X i.*X6 a /.-XXXa } 1.-X*X} } k +Xs     1 j } X   . Q.!.s 8 *X-X).6 ",
"/.a i.-X*Xk XX1.    O ~ l 1 j     $ /.y.y.-X*X/ } Q.a K.-X*Xj *X}     $ k k = a     = !.q.y.-X+X/ } ",
"1.s s /.-X-XK.O   . j X l @ 3 3     a *X-X-X4.s = / j s ).-X-XK.X   X j X k . 6 1     a +X-X-X} j & ",
"1.. s l -X-Xy.j j # =   l @   6 1 j j *X-XP.j 6 O / . j / *X;Xy.j j @ &   k . . 3 6 j ~ +X-XK.j 3 O ",
"s } ~ ~ / *X-X~ 4.k     l #   @ l q.i.-X/.j a } ,.U.} ~ ~ [ *X*X~ <.k     l X   $ s y.r.-X).s s [ } ",
"i.~ [ = ~ K.-X1.s i.  @ U.[   & i.s !.*Xl ~ O r.K.*Xj [ 1 l U.*X} j y.  $ U.~   = y.a Q.*Xk ~ $ ,.P.",
"XXq.[ # s s Q.j } 4.X r./.XXj & [ } y.1.~ 1 $ y.q.l 4./ $ s s !.j / q.O y./.XXa 1 l <.4.<.~ = = r.G.",
"[ O 3 y.} k k ).*XQ./ XXk 4.*Xs *X*XG.a 3 G.P.. 1 ~ X 7 i./ ~ j ).*XP.} ).k y.).k +X*Xy.s 1 U.i.X 3 ",
"s 7 6 l } O j } -X*X+X} k s K.+X-X/.s j X 4.r.O l s 6 6 ~ / O l ,.*X*X+X} k s U.+X-X!.k a X r.4.# [ ",
"P.j j k j j j j ,.-X-X~ j j 4.-X+X~ j j j k k j ~ i.j j k k j j j 4.-X+X~ j j i.-X*Xk j j j k k j l ",
"-X,.j @ 6 / ~ 6 l !.-X).j } -X-X} l @ i.4.X a s !.-X<.s O 8 ~ / 7 k ).-X/.j ,.-X-X/ ~ = 4.r.  s j !.",
"*X+X[ / 6 i.~ . s s +X-XP.XX-XK.k =   Q.K.1 a G.-X*X+X~ ~ a i./ . j s ;X-XU.*X-Xi./ & O K.P.= a G.+X",
"a -XXX6 / # s K./ [ ~ -X-X-X*X7 j r.K.$ & / } -X!.j ;X).7 ~ # s K.k } } -X-X-X).a 7 K.r.& & / 1.*X+X",
"} ,.*X).8 = s 8 [ @ k i.-X+Xl [ X <.1.X / s *XXX8 ~ 4.-XU.O O a a k $ j G.-X+Xj ~   4./ O / s *XXX6 ",
"a s XX-X1./ j q.~ & j 8 ^.1.j 1 = 1.r.7 s /.-Xr./ s a ;X*X<./ s q.k & k a Q.} k 1 & r.1.a a +X-X1.} ",
"~ P.U.!.-X~ j X 7 1.l j j j 1 K.r.O 1 l K.-X1.*X~ k Q.P./.-Xl k . j ,.s j k s 3 i.P.  1 k K.-X1.*X~ ",
"} XX7 4.} / k s 7 } l X j 8   G.4.& j k i.<.3 } ).,.XX3 q.,.~ j a j } a O j 8 X y.K.# j j G.} = } +X",
"-Xk   q.l / G.s l 8 j [ G.} / 8 a l ~ Q.j ,.1 O P.*Xj   r.l [ K.s j a { =.=.....' ^ ( / K.s 4.& @ P.",
"t..   1.8 a XXi.a @ s a *XK.~ X s 8 XXy./ s 1   & } .   ,.s 7 *Xq.l H +.R _ I D ` I | _.4.[ s $   & ",
"1.  . O K.K./.*X} [ j K.j r.K.6 j Q.-XP.P./ O   O /   . # G.K. X*X0...G t y ;.< y K W -.R.P.~ X   O ",
"1.  6 $ . X / -X+Xs k X k $ $ / } *X*X= . . j # O /   8 @ . 2 b.v.7._ C 9 Y D.V z v A W | N X k # O ",
"1.1 a     6 +Xq.-X!.j 6 l & j k -X/.Q.K.X     ~ $ / 3 a   = H | z.@.A 9 , #.S.x.c z m Y W Q p # k # ",
"k s .   # Q.i.j 1.-Xq.k q.~ j XX+X~ k *X/ $ k ) 7.6.=.2 4 6.9.` n.T W L L c.A.V.L %.Y n  .;.C 7 $ k ",
"@ l ~ { v.M.) R ` z.M.+.X.;.n.`.b.n.v.'..XE.[.D.F.Z.V.S.n.-.`  . .L y Y Y %.V.x.u v S A $.L D F ~ j ",
"& a 1 ) V.f.f.d.j.j.d.k.s.g.c.C.F.C.'.[.].].{.}.}.}.S.m.h...h i o.L Z ! L $.;. .A o.B A W N f 1 3 [ ",
"[ / . o 5 b Z % * C 9 t : u u P P E g | r 5 D l.;.Y M ; + o { ) ! o.W L T %.S.&.d.j.B L  .r     3 7 ",
"1.O k . * x K !.W.@., q j # 6 8 G.W.|.F     $ f @ ~ O l .   : g O.*.Y Z L T k.%.$.X.I W z.    = s O ",
"1.  = $ g 0 E -XU.| > h } 7 3 / ( +X*X6 1 $ s . O /   1 # 1 1 F n.e  .L L A U n n +.E l.7 1 $ s . O ",
"1.    3 B.< u ].' S - M.=X).i.& j <.-X!.P./ O   O /     6 r.4.*XN.j e %.! Z B K R -.:.R.U.U.~ X   O ",
"Q.#   N.o.m y  .M w 0 A 7.K.y.X = l i.Q.j ,.1   j K.O   r.l [ *Xl j . f J Q o.o.A r j r.U.s 4.&   k ",
"*X1.. { y n V t q m b b G 6 1 <.<.a a y.~ l 1 & ).*X1.  1.j s ,./ j ,.s 1 d : : / ,.a k 1.~ F & 1 /.",
"a *X/ q.T.8.j 1 7 a k @ j /   q./ # [ 6 ).Q.3 U.!.k *Xk y.!.q.s = j a a $ !.[ X <.4.X k a ).Q.3 P.+X",
"} ,.+X*XXX8 k @ a P.l [ / 8 j G.G.& # [ <.*X+XXXa ~ q.*X*XXX6 ~ O j P.j / / 6 s i.P.O & ~ <.-X+XXX7 ",
"8 s ).*X[ ~ s G./ X j a +XG.j O O i.Q.= s G.-Xq./ s a -X+X/ / a G.k X k s +Xy.k = X Q.y.6 a U.-X1.} ",
"/ G.-X4.s @ a k [ 3 k !.-X-X} X $ 4.r.  s s !.-Xk l P.-X,.j O a l k 6 k /.-X-X[ ~ O y.} X j s ).-Xj ",
"[ -XP.j k j j k k k 1.-X-X-X-Xl j k k j j j l *X).<.-XG.j j j j k j k y.-X-X-XXX~ j k k j j k ~ *X+X",
"-X).k a 6 [ ~ X k [ *X-X,./.-X!.j a   G.q.& k [ -X-X).j 8 a / / O j } -X-X,.+X-XQ.j a O q.y.@ l } +X",
"-Xl l X 6 y.~ k s ).-XQ.k j *X-Xy.s & Q.G.X = ~ K.-Xj ~ X 8 r./ k j +X-XP.j k -X-Xr.a 6 G.K.  3 l P.",
"<./ 8 P.[ X s 7 XX-X-X8 j [ / -X*Xr./ $ @ K.U.3 a / [ 8 P./ X s a #X-X#Xa j [ } -X-X1.k $ O Q.i.7 7 ",
"a = 3 j } & k i.-X+X!.L.k s XXY.-X+Xj ~ @ 1.q.. l s & 6 k / = ~ K.-XXX!.y.j s XXU.-X+X~ k O q.4.X [ ",
"r.6 a [ ~ l [ q.U.i.7 XX} U.K.3 K.Q.P.s a [ } 3 a 1.6 s [ l ~ [ r.K.y.a XX} /.r.7 y.!.y.j a } [ 6 a ",
"-X1.}   j l +X~ k t.  ~ -X/.1 & <.k G.P.k 3 . P.!.-X<.[ . j l *X~ k q.  / -XQ.& = [ l y.G.k 1 @ i.Q.",
"/ 1.} a j !.-X~ k t.  X 4.a   & <.l G.-X<.j & P.K.} <.[ s j ).*X~ k q.  X 1.6   = [ l y.-X<.j = i.!.",
"/ 3 a a y.-X-Xr.U.6     l @   X ~ Q.!.-X+X/ ~ 3 6 l 3 s a i.-X*Xy.P.1     k .   X / !.Q.-X+X~ ~ 3 7 ",
"1.X ~ } ;X;X} & & # a   l @   ~ O & & +X-X).8 ~ O / X / 1.*X-X} & & $ 6   k . . k @ & 1 ).-X).8 j O ",
"q.~ s *X;X).XX=     a $ l # s O     } +X+X-X/.8 7 } [ s *X-X/.XX&     s $ k X j O   . [ XX+X-XK.s 3 ",
"!.s !.-X~.s K.U.#     ~ k 8 7     7 +X} } @X-X4.[ U.s XX-X!.a P.G.@   X l j 7 3     s XX[ } -X*X,.[ ",
"/ G.-X*X~ ~ j ).4.6 6 8 3 k 6 6 7 /.r.a s 4.-X-Xl l U.-XXX~ ~ j XX<.6 6 a 3 ~ 6 6 6 *Xq.s s y.-X-Xk ",
"/ -X-X+X[ [ 4.!.-X-X-X!.a ~ -X-X-X-X[ K.y.} -X-X).} -X-X/.} / r./.-X-X-XU.a / -X-X-X-X,.y.i.[ -X-X+X"
};
